<?xml version="1.0" encoding="utf-8"?>
<!-- Generator: Adobe Illustrator 21.1.0, SVG Export Plug-In . SVG Version: 6.00 Build 0)  -->
<svg version="1.1" id="Calque_1" xmlns="http://www.w3.org/2000/svg" xmlns:xlink="http://www.w3.org/1999/xlink" x="0px" y="0px"
	 viewBox="0 0 1024 768" style="enable-background:new 0 0 1024 768;" xml:space="preserve">
<g>
	<path d="M513.7,382.1c0,87.7,0.1,175.5-0.2,263.2c0,8.8-1.2,17.9-4,26.2c-5.6,16.3-20.5,22-35.7,14c-6.7-3.5-12.9-8.6-18.3-14
		c-57.7-56.4-115.3-112.9-172.8-169.6c-4-3.9-8-5.5-13.6-5.5c-27.7,0.3-55.4,0.2-83.1,0.1c-21.6,0-32.3-10.9-32.3-32.6
		c0-52.3,0-104.6,0-157c0-21.1,10.9-32,32.2-32c27.7-0.1,55.4-0.2,83.1,0.1c5.6,0.1,9.6-1.6,13.6-5.5
		C340.1,212.8,397.8,156,455.8,99.5C461.4,94,468,89,475,85.6c16.4-8,32.8,0.2,37,17.9c1.3,5.6,1.6,11.6,1.6,17.4
		C513.7,208,513.7,295,513.7,382.1z"/>
	<path d="M874.1,399.9c-4.8,106.3-58.1,197.5-164.6,256.4c-10.4,5.8-21,6.3-31.1-0.8c-9.9-7-13.1-16.8-10.7-28.4
		c2-9.8,8.9-15.7,17.3-20.1c27.5-14.4,51.6-33.2,72-56.7c37.5-43.2,58.9-93.4,61.4-150.6c3.9-90.9-31.9-163.4-104.7-217.6
		c-9.7-7.2-20.7-12.8-31.2-19c-18.4-11-21.1-33.4-5.1-46.3c9.9-8,20.9-7.4,31.6-1.8c56.5,29.5,99.9,72.4,129.9,128.6
		C862.3,287.9,873.6,335.4,874.1,399.9z"/>
	<path d="M763,399.8c-3,70.3-39.5,135.2-112.5,178.7c-12.3,7.3-23.9,6.5-34-1.5c-8.2-6.5-11.6-17.9-8.4-28.6c2.6-9,9.3-14.2,17-18.7
		c42.1-25.1,68.7-61.5,79.3-109.4c15.3-68.8-16.7-141.6-77.2-177.6c-6.4-3.8-12.6-9-17.1-15c-6.2-8.2-4.4-22.1,2.3-30.2
		c7.1-8.6,19.2-12.5,29.1-8.6c20.4,8.1,37.3,21.6,52.9,36.5C738.6,267.5,763,324.9,763,399.8z"/>
	<path d="M652,385.8c0.2,53.7-38.4,97.2-84.7,107.1c-12.8,2.7-25.3-4.8-30.1-17.3c-4.6-12.2-0.1-25.7,11.2-32.2
		c3.8-2.2,8-3.9,12.1-5.4c22-8,36.7-29.1,36.6-52.5c-0.1-23.1-14.7-44.1-36.6-51.6c-12-4.1-21.9-10-24.6-23.3
		c-4.2-21,15.3-37,36.9-30.7C619.8,293.7,652,336.7,652,385.8z"/>
</g>
</svg>
