<?xml version="1.0" encoding="utf-8"?>
<!-- Generator: Adobe Illustrator 19.0.0, SVG Export Plug-In . SVG Version: 6.00 Build 0)  -->
<svg version="1.1" id="Calque_1" xmlns="http://www.w3.org/2000/svg" xmlns:xlink="http://www.w3.org/1999/xlink" x="0px" y="0px"
	 viewBox="0 0 566.9 566.9" style="enable-background:new 0 0 566.9 566.9;" xml:space="preserve">
<style type="text/css">
	.st0{fill:#FFFFFF;stroke:#FFFFFF;stroke-miterlimit:10;}
	.st1{fill:#FFFFFF;}
</style>
<circle id="XMLID_1_" class="st0" cx="283.5" cy="283.5" r="157.6"/>
<g id="XMLID_2_">
	<path id="XMLID_523_" class="st1" d="M287,476.7c-4.1,0-8,0-12,0c-0.1,1.3-0.1,2.5-0.2,4c4.1,0,8.2,0,12.2,0
		C287,479.3,287,478.1,287,476.7z M373.3,454.8c-3.7,1.8-7.2,3.5-10.8,5.3c0.5,1.2,1.1,2.4,1.7,3.7c3.7-1.8,7.4-3.6,11-5.4
		C374.5,457.1,373.9,455.9,373.3,454.8z M449.3,184.3c2,3.5,3.9,7,5.9,10.5c1.1-0.6,2.3-1.2,3.6-1.9c-2-3.6-4-7.1-6-10.7
		C451.5,182.9,450.4,183.6,449.3,184.3z M476.3,269.2c0.2,4.1,0.3,8,0.5,11.9c1.4,0,2.6,0,4,0c-0.2-4.1-0.3-8.1-0.5-12.2
		C478.8,269,477.5,269.1,476.3,269.2z M302.8,91.6c4,0.5,7.9,1,11.9,1.5c0.2-1.3,0.4-2.6,0.6-4c-4.1-0.5-8.1-1-12.1-1.6
		C303.1,88.9,303,90.2,302.8,91.6z M117.6,177.5c-2.1,3.5-4.2,7-6.3,10.6c1.3,0.7,2.4,1.3,3.6,2c2.1-3.5,4.1-6.9,6.2-10.3
		C119.9,179,118.8,178.3,117.6,177.5z M286.9,90.8c0-1.5,0-2.8,0-4c-4.1,0-8.1,0-12.2,0c0.1,1.5,0.2,2.7,0.2,4
		C279,90.8,282.9,90.8,286.9,90.8z M257.5,88.3c0.2,1.5,0.4,2.7,0.6,4c4-0.4,7.9-0.8,12-1.2c-0.1-1.3-0.2-2.6-0.3-4
		C265.5,87.5,261.6,87.9,257.5,88.3z M123.7,175.6c2.4-3.3,4.7-6.5,7-9.8c-1-0.8-2-1.6-3.2-2.5c-2.4,3.3-4.8,6.6-7.2,10
		C121.5,174,122.6,174.8,123.7,175.6z M174.9,443.2c-0.8,1.1-1.5,2.2-2.3,3.4c3.5,2.2,6.9,4.4,10.3,6.6c0.7-1.2,1.4-2.4,2.1-3.5
		C181.6,447.5,178.3,445.4,174.9,443.2z M189.3,115.2c3.6-1.9,7.1-3.7,10.7-5.5c-0.6-1.2-1.1-2.4-1.8-3.7c-3.7,1.9-7.3,3.8-10.9,5.7
		C188,113,188.7,114.1,189.3,115.2z M182.9,114.2c-3.5,2.2-6.9,4.4-10.4,6.6c0.9,1.2,1.6,2.3,2.3,3.4c3.5-2.2,6.8-4.3,10.1-6.5
		C184.3,116.6,183.6,115.5,182.9,114.2z M121,387.7c-2.1-3.5-4.1-6.9-6.2-10.3c-1.2,0.7-2.3,1.3-3.6,2c2.1,3.6,4.2,7,6.3,10.6
		C118.8,389.1,119.9,388.4,121,387.7z M270,476.3c-4-0.4-7.9-0.8-11.9-1.2c-0.2,1.3-0.3,2.6-0.5,4c4.1,0.4,8.1,0.8,12.2,1.2
		C269.8,478.9,269.9,477.6,270,476.3z M88.2,309.2c0.7,4.1,1.3,8.1,2,12.1c1.4-0.3,2.7-0.5,4-0.8c-0.7-4-1.3-7.9-1.9-11.9
		C90.9,308.8,89.7,309,88.2,309.2z M92.2,258.8c0.7-4,1.3-7.9,1.9-11.8c-1.3-0.3-2.6-0.5-4-0.8c-0.7,4.1-1.3,8-2,12.1
		C89.6,258.5,90.9,258.6,92.2,258.8z M200,457.7c-3.6-1.9-7.1-3.7-10.7-5.5c-0.6,1.1-1.3,2.3-2,3.6c3.7,1.9,7.3,3.8,10.9,5.7
		C198.9,460.1,199.4,459,200,457.7z M401,130.3c3.1,2.6,6.2,5.1,9.3,7.6c0.9-1,1.7-2,2.7-3.1c-3.2-2.6-6.3-5.2-9.5-7.8
		C402.6,128.2,401.8,129.3,401,130.3z M373.3,112.6c0.6-1.2,1.2-2.3,1.9-3.6c-3.7-1.8-7.3-3.6-11-5.4c-0.6,1.3-1.1,2.5-1.7,3.7
		C366.1,109.1,369.7,110.9,373.3,112.6z M397,440c-3.4,2.3-6.6,4.5-10,6.8c0.7,1.1,1.4,2.2,2.2,3.4c3.5-2.4,6.8-4.6,10.2-6.9
		C398.6,442.2,397.8,441.1,397,440z M91.6,303.7c-0.3-4.1-0.6-8-0.9-11.8c-1.4,0-2.6,0-4.1,0c0.3,4.1,0.6,8.1,0.9,12.2
		C89,303.9,90.2,303.8,91.6,303.7z M87.6,263.4c-0.3,4.1-0.6,8.1-0.9,12.2c1.5,0,2.8,0,4.1,0c0.3-4,0.6-7.9,0.9-11.9
		C90.2,263.6,89,263.5,87.6,263.4z M314.8,474.3c-4.1,0.5-8,1-11.9,1.6c0.2,1.4,0.3,2.7,0.4,4c4.1-0.5,8.1-1.1,12.1-1.6
		C315.2,476.8,315,475.6,314.8,474.3z M462.3,357.2c-1.7,3.7-3.3,7.3-4.9,11c1.2,0.6,2.4,1.2,3.7,1.8c1.7-3.8,3.3-7.5,5-11.2
		C464.7,358.1,463.6,357.7,462.3,357.2z M466.1,208.7c-1.7-3.8-3.4-7.5-5-11.2c-1.4,0.7-2.5,1.2-3.7,1.8c1.7,3.7,3.3,7.3,4.9,11
		C463.6,209.7,464.7,209.2,466.1,208.7z M440.6,396.3c-2.5,3.2-4.9,6.4-7.3,9.5c1.1,0.9,2.1,1.7,3.2,2.6c2.5-3.3,5-6.5,7.5-9.7
		C442.7,397.9,441.6,397.1,440.6,396.3z M430,409.7c-2.7,3-5.4,5.9-8,8.7c0.9,1,1.7,2,2.7,3.1c2.9-3.1,5.6-6,8.4-9.1
		C432,411.4,431,410.5,430,409.7z M455.2,372.6c-2,3.5-3.9,6.9-5.9,10.5c1.2,0.7,2.3,1.4,3.5,2.1c2-3.6,4-7.1,6-10.7
		C457.4,373.8,456.3,373.2,455.2,372.6z M476.2,326.7c0.8-4.1,1.5-8.1,2.3-12.1c-1.5-0.2-2.7-0.4-4-0.6c-0.7,4-1.5,7.9-2.2,11.8
		C473.5,326.1,474.7,326.4,476.2,326.7z M127.6,404.1c1.2-0.9,2.2-1.7,3.2-2.5c-2.4-3.3-4.7-6.5-7.1-9.8c-1.2,0.8-2.2,1.5-3.4,2.3
		C122.8,397.5,125.1,400.8,127.6,404.1z M320.5,477.5c4-0.9,7.9-1.8,12-2.7c-0.4-1.4-0.7-2.6-1-3.9c-3.9,0.9-7.7,1.7-11.7,2.6
		C320,474.7,320.2,476,320.5,477.5z M440.5,171c1-0.7,2.1-1.5,3.3-2.4c-2.5-3.3-5-6.5-7.5-9.7c-1.1,0.9-2.1,1.8-3.2,2.6
		C435.7,164.7,438,167.8,440.5,171z M389.2,117.1c-0.8,1.2-1.5,2.3-2.2,3.4c3.4,2.3,6.6,4.5,10,6.8c0.8-1.1,1.6-2.2,2.4-3.3
		C396,121.7,392.7,119.5,389.2,117.1z M319.7,94c4,0.9,7.8,1.7,11.7,2.6c0.3-1.4,0.6-2.6,1-3.9c-4-0.9-8-1.8-12-2.6
		C320.2,91.5,319.9,92.7,319.7,94z M348,470.2c3.9-1.5,7.6-2.9,11.5-4.4c-0.5-1.3-1-2.5-1.6-3.8c-3.8,1.4-7.5,2.9-11.2,4.3
		C347.1,467.5,347.5,468.7,348,470.2z M230.7,469.4c-0.4,1.3-0.7,2.5-1.1,3.9c4,1,8,2,11.9,3c0.3-1.5,0.6-2.7,0.8-4
		C238.4,471.4,234.6,470.4,230.7,469.4z M107.7,363.2c-1.6-3.8-3.1-7.4-4.6-11.1c-1.3,0.5-2.5,1-3.8,1.5c1.6,3.8,3.1,7.6,4.7,11.3
		C105.4,364.3,106.5,363.8,107.7,363.2z M348,97.2c-0.5,1.4-0.9,2.7-1.3,3.9c3.8,1.5,7.5,2.9,11.2,4.3c0.5-1.3,1-2.5,1.6-3.8
		C355.6,100.1,351.8,98.7,348,97.2z M229.6,94.1c0.4,1.4,0.8,2.7,1.1,3.9c3.9-1,7.8-1.9,11.7-2.9c-0.3-1.3-0.6-2.6-0.9-4
		C237.5,92.1,233.6,93.1,229.6,94.1z M478.4,252.8c-0.8-4.1-1.5-8.1-2.3-12.1c-1.5,0.3-2.7,0.6-4,0.9c0.8,4,1.5,7.9,2.2,11.8
		C475.7,253.2,476.9,253,478.4,252.8z M401,437.1c0.8,1.1,1.6,2.1,2.5,3.2c3.2-2.6,6.3-5.2,9.5-7.8c-1-1.1-1.8-2.1-2.7-3.1
		C407.2,432,404.1,434.5,401,437.1z M104,202.5c-1.6,3.9-3.1,7.6-4.7,11.3c1.4,0.5,2.6,1,3.8,1.4c1.6-3.8,3.1-7.4,4.6-11.1
		C106.5,203.7,105.4,203.2,104,202.5z M476.3,298.2c1.3,0.1,2.6,0.2,4,0.3c0.2-4.1,0.3-8.1,0.5-12.2c-1.4,0-2.7,0-4,0
		C476.6,290.2,476.4,294.2,476.3,298.2z M159.5,130.5c-3.1,2.7-6.2,5.3-9.3,8c1,1.1,1.9,2,2.8,3c3.1-2.6,6-5.2,9.1-7.9
		C161.3,132.7,160.5,131.7,159.5,130.5z M153,425.9c-0.9,1-1.8,2-2.7,3c3.1,2.7,6.2,5.3,9.3,8c0.9-1.2,1.7-2.2,2.6-3.2
		C159.1,431.1,156.1,428.5,153,425.9z M471.7,343.5c1.1-4,2.2-7.9,3.3-11.8c-1.4-0.4-2.6-0.7-3.9-1c-1.1,3.9-2.2,7.7-3.3,11.6
		C469.1,342.6,470.3,343,471.7,343.5z M467.8,225.2c1.1,3.9,2.2,7.7,3.3,11.5c1.3-0.3,2.6-0.6,4-1c-1.1-4-2.2-7.9-3.4-11.8
		C470.2,224.4,469,224.8,467.8,225.2z M149.4,422.5c-2.8-2.9-5.6-5.8-8.4-8.7c-1,0.9-2,1.8-3,2.8c2.9,3,5.7,5.9,8.5,8.7
		C147.6,424.3,148.5,423.4,149.4,422.5z M422,148.9c2.6,2.9,5.3,5.8,8.1,8.8c1-0.9,2-1.7,3.1-2.7c-2.8-3.1-5.5-6-8.3-9
		C423.8,147.1,422.9,148,422,148.9z M149.3,145.1c-0.9-1-1.8-1.9-2.8-3c-2.8,2.9-5.6,5.8-8.5,8.8c1.1,1,2,1.8,3,2.7
		C143.8,150.7,146.6,147.9,149.3,145.1z M97.8,336c-1.3,0.4-2.5,0.7-3.9,1.1c1.3,4,2.5,7.8,3.7,11.7c1.4-0.5,2.6-0.9,3.8-1.4
		C100.2,343.5,99,339.8,97.8,336z M101.4,220c-1.3-0.4-2.5-0.9-3.9-1.3c-1.2,4-2.4,7.8-3.7,11.7c1.4,0.4,2.7,0.7,3.9,1.1
		C99,227.7,100.2,223.9,101.4,220z M224.7,471.9c0.4-1.4,0.8-2.6,1.2-3.9c-3.8-1.3-7.6-2.6-11.4-3.9c-0.5,1.2-0.9,2.4-1.4,3.8
		C217,469.2,220.8,470.5,224.7,471.9z M225.9,99.4c-0.4-1.3-0.8-2.5-1.2-3.9c-3.9,1.4-7.7,2.7-11.6,4c0.5,1.4,1,2.6,1.5,3.8
		C218.4,102,222.1,100.8,225.9,99.4z M108.9,192.5c-1,1.9-1.9,3.7-2.8,5.5c1.3,0.6,2.4,1.2,3.6,1.8c0.9-1.8,1.8-3.6,2.8-5.4
		C111.3,193.8,110.2,193.2,108.9,192.5z M385,452.8c-0.8-1.2-1.4-2.3-2.1-3.5c-1.8,1-3.5,2-5.2,3c0.7,1.3,1.3,2.4,2,3.6
		C381.4,454.9,383.2,453.9,385,452.8z M421.2,142.5c-1.6-1.5-3-2.9-4.5-4.3c-1,1.1-1.8,2-2.7,3c1.5,1.4,2.9,2.8,4.2,4
		C419.2,144.3,420.2,143.5,421.2,142.5z M479.1,309.6c0.3-2.1,0.5-4,0.8-6.1c-1.4-0.1-2.6-0.3-4-0.4c-0.3,2-0.5,4-0.7,6
		C476.5,309.3,477.7,309.4,479.1,309.6z M446.7,394.6c1.1-1.8,2.2-3.5,3.3-5.2c-1.2-0.8-2.3-1.5-3.4-2.2c-1.1,1.7-2.2,3.4-3.3,5.1
		C444.5,393.1,445.6,393.8,446.7,394.6z M382.8,118c0.7-1.2,1.4-2.3,2.1-3.5c-1.8-1-3.5-2-5.4-3.1c-0.7,1.2-1.3,2.4-2,3.6
		C379.4,116,381.1,117,382.8,118z M298.3,480.2c-0.1-1.4-0.2-2.7-0.3-4c-2,0.1-4,0.3-5.8,0.4c0,1.4,0,2.6,0,4.1
		C294.2,480.5,296.2,480.4,298.3,480.2z M130.7,159.4c1.1,0.9,2.1,1.7,3.2,2.6c1.3-1.6,2.6-3.1,3.9-4.6c-1.1-0.9-2.1-1.8-3.1-2.6
		C133.3,156.3,132,157.8,130.7,159.4z M137.8,410.1c-1.4-1.6-2.6-3.1-3.9-4.6c-1,0.9-2.1,1.7-3.2,2.6c1.4,1.6,2.7,3.1,4,4.7
		C135.8,411.9,136.7,411,137.8,410.1z M170.9,127.1c-0.8-1.1-1.6-2.1-2.4-3.3c-1.7,1.3-3.3,2.5-4.9,3.7c0.9,1.2,1.7,2.2,2.5,3.2
		C167.7,129.4,169.2,128.3,170.9,127.1z M246.4,90.2c0.3,1.4,0.5,2.6,0.8,4c2-0.4,3.9-0.7,5.9-1.1c-0.2-1.4-0.4-2.6-0.7-4
		C250.4,89.4,248.5,89.8,246.4,90.2z M246.5,477.3c2.1,0.4,4,0.7,6.1,1.1c0.2-1.4,0.4-2.7,0.6-4c-2-0.4-4-0.7-5.9-1
		C247,474.7,246.7,475.9,246.5,477.3z M163.5,440c1.7,1.2,3.3,2.4,5,3.7c0.8-1.2,1.6-2.2,2.4-3.3c-1.7-1.2-3.2-2.4-4.9-3.6
		C165.2,437.8,164.4,438.8,163.5,440z M475.1,258.3c0.3,2,0.5,3.9,0.8,6c1.4-0.1,2.6-0.3,4-0.4c-0.3-2.1-0.5-4.1-0.8-6.1
		C477.7,257.9,476.5,258.1,475.1,258.3z M96.5,236.3c-1.4-0.3-2.6-0.7-3.9-1c-0.5,2.1-0.9,4-1.4,6c1.4,0.3,2.6,0.6,4,0.9
		C95.6,240.1,96.1,238.2,96.5,236.3z M202.8,103.9c0.6,1.3,1.1,2.5,1.7,3.7c1.9-0.8,3.7-1.6,5.5-2.5c-0.5-1.3-1-2.5-1.6-3.8
		C206.5,102.3,204.7,103.1,202.8,103.9z M343.2,95.7c-2-0.6-4-1.1-6-1.7c-0.4,1.4-0.7,2.6-1.1,3.9c2,0.6,3.8,1.1,5.8,1.7
		C342.4,98.3,342.7,97.1,343.2,95.7z M446.6,180.2c1.2-0.8,2.3-1.5,3.4-2.2c-1.1-1.8-2.2-3.4-3.3-5.2c-1.2,0.8-2.2,1.5-3.4,2.3
		C444.5,176.8,445.5,178.4,446.6,180.2z M292,90.8c2,0.1,3.9,0.2,5.9,0.4c0.1-1.2,0.2-2.3,0.3-3.4c0-0.2-0.3-0.7-0.4-0.7
		c-1.9-0.2-3.8-0.3-5.7-0.4C292,88.2,292,89.5,292,90.8z M112.6,373c-1-1.9-1.9-3.6-2.8-5.4c-1.3,0.6-2.4,1.2-3.6,1.8
		c1,1.9,1.9,3.6,2.8,5.5C110.2,374.3,111.3,373.7,112.6,373z M342,467.8c-2,0.6-3.9,1.1-5.8,1.7c0.4,1.3,0.7,2.6,1.1,3.9
		c2-0.6,3.9-1.1,5.9-1.7C342.8,470.3,342.4,469.1,342,467.8z M92.6,332.2c1.4-0.4,2.6-0.7,3.9-1c-0.5-2-0.9-3.9-1.4-5.9
		c-1.4,0.3-2.6,0.6-3.9,0.9C91.7,328.2,92.1,330.1,92.6,332.2z M208.5,466c0.6-1.4,1-2.5,1.5-3.8c-1.9-0.8-3.7-1.6-5.5-2.5
		c-0.6,1.3-1.1,2.4-1.7,3.7C204.7,464.3,206.5,465.1,208.5,466z M470,219.2c-0.7-2-1.4-3.9-2.1-5.8c-1.4,0.5-2.6,1-3.8,1.5
		c0.7,1.9,1.4,3.8,2.1,5.7C467.4,220.1,468.6,219.6,470,219.2z M467.9,354c0.7-2,1.4-3.9,2.1-5.8c-1.4-0.5-2.6-0.9-3.8-1.3
		c-0.7,2-1.4,3.8-2,5.7C465.4,353.1,466.6,353.5,467.9,354z M416.8,429.3c1.4-1.6,2.8-3.1,4.1-4.6c-0.8-0.8-1.7-1.7-2.7-2.7
		c-1.4,1.5-2.7,3-4,4.5C415,427.2,415.8,428.2,416.8,429.3z M86.6,286.7c1.4,0,2.7,0,3.9,0c0-2,0-4,0-6c-1.4,0-2.6,0-3.9,0
		C86.6,282.7,86.6,284.7,86.6,286.7z"/>
	<path id="XMLID_522_" class="st1" d="M287,476.7c0,1.4,0,2.6,0,4c-4,0-8.1,0-12.2,0c0.1-1.5,0.1-2.7,0.2-4
		C279,476.7,282.9,476.7,287,476.7z"/>
	<path id="XMLID_521_" class="st1" d="M373.3,454.8c0.6,1.2,1.2,2.3,1.9,3.6c-3.7,1.8-7.3,3.6-11,5.4c-0.6-1.3-1.1-2.5-1.7-3.7
		C366.1,458.3,369.6,456.6,373.3,454.8z"/>
	<path id="XMLID_520_" class="st1" d="M449.3,184.3c1.1-0.7,2.3-1.4,3.5-2.1c2,3.6,4,7.1,6,10.7c-1.3,0.7-2.5,1.3-3.6,1.9
		C453.2,191.3,451.3,187.8,449.3,184.3z"/>
	<path id="XMLID_519_" class="st1" d="M476.3,269.2c1.3-0.1,2.5-0.2,4.1-0.3c0.2,4.1,0.3,8.1,0.5,12.2c-1.4,0-2.7,0-4,0
		C476.6,277.2,476.4,273.3,476.3,269.2z"/>
	<path id="XMLID_518_" class="st1" d="M302.8,91.6c0.1-1.4,0.3-2.6,0.4-4c4.1,0.5,8,1,12.1,1.6c-0.2,1.4-0.4,2.7-0.6,4
		C310.8,92.6,306.9,92.1,302.8,91.6z"/>
	<path id="XMLID_517_" class="st1" d="M117.6,177.5c1.2,0.8,2.3,1.5,3.4,2.2c-2.1,3.5-4.1,6.9-6.2,10.3c-1.1-0.6-2.3-1.3-3.6-2
		C113.4,184.5,115.5,181,117.6,177.5z"/>
	<path id="XMLID_516_" class="st1" d="M286.9,90.8c-4,0-7.9,0-11.9,0c-0.1-1.2-0.2-2.5-0.2-4c4.1,0,8.1,0,12.2,0
		C286.9,88,286.9,89.3,286.9,90.8z"/>
	<path id="XMLID_515_" class="st1" d="M257.5,88.3c4.1-0.4,8.1-0.8,12.2-1.2c0.1,1.4,0.2,2.7,0.3,4c-4,0.4-7.9,0.8-12,1.2
		C257.8,91,257.7,89.7,257.5,88.3z"/>
	<path id="XMLID_514_" class="st1" d="M123.7,175.6c-1.2-0.8-2.2-1.5-3.4-2.3c2.4-3.3,4.8-6.6,7.2-10c1.2,0.9,2.2,1.7,3.2,2.5
		C128.4,169.1,126.1,172.3,123.7,175.6z"/>
	<path id="XMLID_513_" class="st1" d="M174.9,443.2c3.4,2.2,6.8,4.3,10.1,6.5c-0.7,1.1-1.3,2.3-2.1,3.5c-3.5-2.2-6.8-4.4-10.3-6.6
		C173.4,445.4,174.1,444.4,174.9,443.2z"/>
	<path id="XMLID_512_" class="st1" d="M189.3,115.2c-0.6-1.1-1.3-2.2-2-3.5c3.6-1.9,7.2-3.8,10.9-5.7c0.6,1.3,1.2,2.5,1.8,3.7
		C196.4,111.5,192.9,113.4,189.3,115.2z"/>
	<path id="XMLID_511_" class="st1" d="M182.9,114.2c0.7,1.2,1.4,2.3,2.1,3.5c-3.3,2.1-6.7,4.3-10.1,6.5c-0.7-1.1-1.5-2.1-2.3-3.4
		C176,118.6,179.4,116.4,182.9,114.2z"/>
	<path id="XMLID_510_" class="st1" d="M121,387.7c-1.1,0.7-2.2,1.4-3.4,2.2c-2.1-3.6-4.2-7-6.3-10.6c1.2-0.7,2.3-1.3,3.6-2
		C116.9,380.8,118.9,384.3,121,387.7z"/>
	<path id="XMLID_509_" class="st1" d="M270,476.3c-0.1,1.3-0.2,2.6-0.3,4c-4.1-0.4-8.1-0.8-12.2-1.2c0.2-1.5,0.3-2.7,0.5-4
		C262.1,475.5,266,475.9,270,476.3z"/>
	<path id="XMLID_508_" class="st1" d="M88.2,309.2c1.5-0.2,2.7-0.4,4-0.5c0.6,3.9,1.3,7.8,1.9,11.9c-1.3,0.3-2.5,0.5-4,0.8
		C89.5,317.2,88.8,313.3,88.2,309.2z"/>
	<path id="XMLID_507_" class="st1" d="M92.2,258.8c-1.3-0.2-2.6-0.3-4-0.5c0.7-4.1,1.3-8.1,2-12.1c1.4,0.3,2.7,0.5,4,0.8
		C93.5,250.9,92.9,254.8,92.2,258.8z"/>
	<path id="XMLID_506_" class="st1" d="M200,457.7c-0.6,1.2-1.1,2.3-1.7,3.7c-3.7-1.9-7.2-3.8-10.9-5.7c0.7-1.3,1.4-2.4,2-3.6
		C192.9,454.1,196.4,455.9,200,457.7z"/>
	<path id="XMLID_505_" class="st1" d="M401,130.3c0.8-1.1,1.6-2.1,2.5-3.2c3.2,2.6,6.3,5.1,9.5,7.8c-1,1.1-1.8,2.1-2.7,3.1
		C407.2,135.4,404.1,132.9,401,130.3z"/>
	<path id="XMLID_504_" class="st1" d="M373.3,112.6c-3.6-1.8-7.1-3.5-10.8-5.3c0.5-1.2,1.1-2.4,1.7-3.7c3.7,1.8,7.3,3.5,11,5.4
		C374.5,110.3,373.9,111.4,373.3,112.6z"/>
	<path id="XMLID_503_" class="st1" d="M397,440c0.8,1.1,1.5,2.1,2.4,3.3c-3.4,2.3-6.7,4.6-10.2,6.9c-0.8-1.2-1.5-2.3-2.2-3.4
		C390.4,444.6,393.6,442.3,397,440z"/>
	<path id="XMLID_502_" class="st1" d="M91.6,303.7c-1.4,0.1-2.7,0.3-4,0.4c-0.3-4.1-0.6-8.1-0.9-12.2c1.4,0,2.7,0,4.1,0
		C91.1,295.7,91.3,299.6,91.6,303.7z"/>
	<path id="XMLID_501_" class="st1" d="M87.6,263.4c1.4,0.1,2.7,0.3,4,0.4c-0.3,4-0.6,7.9-0.9,11.9c-1.3,0-2.6,0-4.1,0
		C87,271.5,87.3,267.5,87.6,263.4z"/>
	<path id="XMLID_500_" class="st1" d="M314.8,474.3c0.2,1.3,0.4,2.5,0.6,4c-4,0.5-8,1-12.1,1.6c-0.1-1.3-0.3-2.6-0.4-4
		C306.8,475.4,310.7,474.8,314.8,474.3z"/>
	<path id="XMLID_499_" class="st1" d="M462.3,357.2c1.2,0.5,2.4,1,3.8,1.5c-1.7,3.7-3.3,7.4-5,11.2c-1.3-0.6-2.4-1.2-3.7-1.8
		C459.1,364.5,460.7,360.9,462.3,357.2z"/>
	<path id="XMLID_498_" class="st1" d="M466.1,208.7c-1.3,0.6-2.5,1-3.8,1.6c-1.6-3.7-3.3-7.3-4.9-11c1.2-0.6,2.3-1.1,3.7-1.8
		C462.7,201.2,464.4,204.8,466.1,208.7z"/>
	<path id="XMLID_497_" class="st1" d="M440.6,396.3c1,0.8,2.1,1.5,3.3,2.4c-2.5,3.3-5,6.4-7.5,9.7c-1.1-0.9-2.1-1.7-3.2-2.6
		C435.7,402.7,438.1,399.6,440.6,396.3z"/>
	<path id="XMLID_496_" class="st1" d="M430,409.7c1,0.8,2,1.7,3.1,2.7c-2.8,3-5.5,6-8.4,9.1c-1-1.1-1.8-2.1-2.7-3.1
		C424.6,415.6,427.3,412.7,430,409.7z"/>
	<path id="XMLID_495_" class="st1" d="M455.2,372.6c1.1,0.6,2.3,1.2,3.6,1.9c-2,3.6-4,7.1-6,10.7c-1.2-0.7-2.3-1.4-3.5-2.1
		C451.3,379.5,453.2,376.1,455.2,372.6z"/>
	<path id="XMLID_494_" class="st1" d="M476.2,326.7c-1.5-0.3-2.7-0.6-4-0.9c0.7-3.9,1.4-7.8,2.2-11.8c1.3,0.2,2.5,0.4,4,0.6
		C477.7,318.6,476.9,322.6,476.2,326.7z"/>
	<path id="XMLID_493_" class="st1" d="M127.6,404.1c-2.4-3.4-4.8-6.6-7.2-10c1.1-0.8,2.2-1.5,3.4-2.3c2.4,3.3,4.7,6.5,7.1,9.8
		C129.8,402.4,128.8,403.2,127.6,404.1z"/>
	<path id="XMLID_492_" class="st1" d="M320.5,477.5c-0.3-1.5-0.5-2.7-0.7-4c4-0.9,7.8-1.7,11.7-2.6c0.3,1.3,0.6,2.5,1,3.9
		C328.4,475.7,324.5,476.6,320.5,477.5z"/>
	<path id="XMLID_491_" class="st1" d="M440.5,171c-2.5-3.2-4.9-6.3-7.3-9.5c1-0.8,2-1.6,3.2-2.6c2.5,3.3,5,6.5,7.5,9.7
		C442.6,169.5,441.6,170.3,440.5,171z"/>
	<path id="XMLID_490_" class="st1" d="M389.2,117.1c3.5,2.3,6.7,4.6,10.1,6.9c-0.8,1.1-1.6,2.2-2.4,3.3c-3.3-2.3-6.6-4.5-10-6.8
		C387.7,119.4,388.5,118.3,389.2,117.1z"/>
	<path id="XMLID_489_" class="st1" d="M319.7,94c0.2-1.3,0.5-2.5,0.7-4c4,0.9,7.9,1.8,12,2.6c-0.3,1.4-0.6,2.6-1,3.9
		C327.5,95.7,323.7,94.8,319.7,94z"/>
	<path id="XMLID_488_" class="st1" d="M348,470.2c-0.5-1.4-0.9-2.6-1.3-3.8c3.8-1.4,7.5-2.9,11.2-4.3c0.5,1.2,1,2.4,1.6,3.8
		C355.6,467.2,351.9,468.7,348,470.2z"/>
	<path id="XMLID_487_" class="st1" d="M230.7,469.4c3.9,1,7.7,1.9,11.6,2.9c-0.3,1.2-0.5,2.5-0.8,4c-4-1-7.9-2-11.9-3
		C230,472,230.4,470.7,230.7,469.4z"/>
	<path id="XMLID_486_" class="st1" d="M107.7,363.2c-1.2,0.5-2.3,1.1-3.7,1.7c-1.6-3.8-3.1-7.5-4.7-11.3c1.3-0.5,2.5-1,3.8-1.5
		C104.6,355.8,106.1,359.5,107.7,363.2z"/>
	<path id="XMLID_485_" class="st1" d="M348,97.2c3.9,1.5,7.6,2.9,11.5,4.4c-0.5,1.3-1,2.5-1.6,3.8c-3.7-1.4-7.4-2.8-11.2-4.3
		C347.1,99.9,347.5,98.7,348,97.2z"/>
	<path id="XMLID_484_" class="st1" d="M229.6,94.1c4-1,7.9-2,11.9-3c0.3,1.4,0.6,2.7,0.9,4c-3.9,1-7.7,1.9-11.7,2.9
		C230.3,96.7,230,95.5,229.6,94.1z"/>
	<path id="XMLID_483_" class="st1" d="M478.4,252.8c-1.5,0.2-2.7,0.4-4,0.6c-0.7-3.9-1.5-7.8-2.2-11.8c1.2-0.3,2.5-0.6,4-0.9
		C476.9,244.7,477.7,248.6,478.4,252.8z"/>
	<path id="XMLID_482_" class="st1" d="M401,437.1c3.1-2.5,6.2-5,9.3-7.6c0.8,1,1.7,2,2.7,3.1c-3.2,2.6-6.3,5.1-9.5,7.8
		C402.6,439.2,401.8,438.1,401,437.1z"/>
	<path id="XMLID_481_" class="st1" d="M104,202.5c1.4,0.6,2.5,1.1,3.7,1.7c-1.5,3.7-3,7.3-4.6,11.1c-1.2-0.5-2.4-0.9-3.8-1.4
		C100.8,210.1,102.4,206.4,104,202.5z"/>
	<path id="XMLID_480_" class="st1" d="M476.3,298.2c0.2-4,0.3-7.9,0.5-11.9c1.3,0,2.6,0,4,0c-0.2,4.1-0.3,8.1-0.5,12.2
		C478.9,298.4,477.6,298.3,476.3,298.2z"/>
	<path id="XMLID_479_" class="st1" d="M159.5,130.5c0.9,1.1,1.8,2.1,2.6,3.2c-3.1,2.7-6.1,5.2-9.1,7.9c-0.9-1-1.8-1.9-2.8-3
		C153.4,135.9,156.4,133.2,159.5,130.5z"/>
	<path id="XMLID_478_" class="st1" d="M153,425.9c3.1,2.7,6.1,5.2,9.1,7.9c-0.8,1-1.6,2-2.6,3.2c-3.1-2.7-6.2-5.3-9.3-8
		C151.2,427.8,152.1,426.9,153,425.9z"/>
	<path id="XMLID_477_" class="st1" d="M471.7,343.5c-1.4-0.4-2.6-0.8-3.9-1.2c1.1-3.9,2.2-7.7,3.3-11.6c1.3,0.3,2.5,0.6,3.9,1
		C473.9,335.6,472.8,339.5,471.7,343.5z"/>
	<path id="XMLID_476_" class="st1" d="M467.8,225.2c1.3-0.4,2.5-0.8,3.9-1.2c1.1,4,2.2,7.8,3.4,11.8c-1.4,0.3-2.7,0.6-4,1
		C469.9,232.8,468.9,229.1,467.8,225.2z"/>
	<path id="XMLID_475_" class="st1" d="M149.4,422.5c-1,0.9-1.9,1.8-2.9,2.8c-2.8-2.9-5.6-5.8-8.5-8.7c1-1,2-1.8,3-2.8
		C143.9,416.7,146.6,419.5,149.4,422.5z"/>
	<path id="XMLID_474_" class="st1" d="M422,148.9c0.9-0.9,1.8-1.9,2.9-2.9c2.7,3,5.4,5.9,8.3,9c-1.1,0.9-2,1.8-3.1,2.7
		C427.3,154.7,424.6,151.8,422,148.9z"/>
	<path id="XMLID_473_" class="st1" d="M149.3,145.1c-2.7,2.8-5.4,5.6-8.3,8.5c-1-0.9-1.9-1.7-3-2.7c2.8-2.9,5.6-5.8,8.5-8.8
		C147.4,143.2,148.3,144.1,149.3,145.1z"/>
	<path id="XMLID_472_" class="st1" d="M97.8,336c1.2,3.8,2.4,7.6,3.6,11.5c-1.2,0.4-2.4,0.9-3.8,1.4c-1.2-3.9-2.4-7.7-3.7-11.7
		C95.3,336.7,96.5,336.3,97.8,336z"/>
	<path id="XMLID_471_" class="st1" d="M101.4,220c-1.2,3.9-2.4,7.6-3.6,11.5c-1.2-0.3-2.5-0.7-3.9-1.1c1.2-3.9,2.4-7.7,3.7-11.7
		C98.9,219.2,100.1,219.6,101.4,220z"/>
	<path id="XMLID_470_" class="st1" d="M224.7,471.9c-3.9-1.4-7.7-2.7-11.6-4c0.5-1.4,1-2.6,1.4-3.8c3.8,1.3,7.5,2.6,11.4,3.9
		C225.5,469.3,225.2,470.5,224.7,471.9z"/>
	<path id="XMLID_469_" class="st1" d="M225.9,99.4c-3.8,1.3-7.5,2.6-11.4,3.9c-0.5-1.2-0.9-2.4-1.5-3.8c3.9-1.3,7.7-2.7,11.6-4
		C225.1,96.9,225.5,98.1,225.9,99.4z"/>
	<path id="XMLID_468_" class="st1" d="M108.9,192.5c1.3,0.7,2.4,1.2,3.6,1.9c-0.9,1.8-1.8,3.6-2.8,5.4c-1.3-0.6-2.4-1.2-3.6-1.8
		C107.1,196.2,108,194.4,108.9,192.5z"/>
	<path id="XMLID_467_" class="st1" d="M385,452.8c-1.8,1-3.5,2-5.4,3.1c-0.7-1.2-1.3-2.3-2-3.6c1.7-1,3.5-2,5.2-3
		C383.5,450.5,384.2,451.6,385,452.8z"/>
	<path id="XMLID_466_" class="st1" d="M421.2,142.5c-1,0.9-2,1.8-3,2.7c-1.3-1.2-2.7-2.6-4.2-4c0.9-1,1.8-2,2.7-3
		C418.2,139.6,419.6,141,421.2,142.5z"/>
	<path id="XMLID_465_" class="st1" d="M479.1,309.6c-1.4-0.2-2.6-0.3-4-0.5c0.3-2,0.5-4,0.7-6c1.4,0.1,2.6,0.3,4,0.4
		C479.6,305.6,479.3,307.5,479.1,309.6z"/>
	<path id="XMLID_464_" class="st1" d="M446.7,394.6c-1.2-0.8-2.2-1.5-3.4-2.3c1.1-1.7,2.1-3.3,3.3-5.1c1.1,0.7,2.2,1.4,3.4,2.2
		C448.9,391.2,447.9,392.8,446.7,394.6z"/>
	<path id="XMLID_463_" class="st1" d="M382.8,118c-1.8-1-3.4-2-5.2-3c0.7-1.2,1.3-2.3,2-3.6c1.8,1,3.6,2,5.4,3.1
		C384.2,115.7,383.5,116.8,382.8,118z"/>
	<path id="XMLID_462_" class="st1" d="M298.3,480.2c-2.1,0.1-4.1,0.3-6.2,0.4c0-1.4,0-2.7,0-4.1c1.9-0.1,3.8-0.3,5.8-0.4
		C298,477.6,298.2,478.8,298.3,480.2z"/>
	<path id="XMLID_461_" class="st1" d="M130.7,159.4c1.4-1.6,2.6-3.1,4-4.7c1,0.9,2,1.7,3.1,2.6c-1.3,1.5-2.6,3-3.9,4.6
		C132.8,161.1,131.8,160.3,130.7,159.4z"/>
	<path id="XMLID_460_" class="st1" d="M137.8,410.1c-1.1,0.9-2,1.8-3.1,2.7c-1.4-1.6-2.7-3.1-4-4.7c1.1-0.9,2.1-1.7,3.2-2.6
		C135.2,407,136.5,408.5,137.8,410.1z"/>
	<path id="XMLID_459_" class="st1" d="M170.9,127.1c-1.6,1.2-3.2,2.4-4.8,3.6c-0.8-1-1.6-2.1-2.5-3.2c1.7-1.2,3.3-2.4,4.9-3.7
		C169.3,124.9,170.1,126,170.9,127.1z"/>
	<path id="XMLID_458_" class="st1" d="M246.4,90.2c2.1-0.4,4-0.7,6.1-1.1c0.2,1.4,0.4,2.6,0.7,4c-2,0.4-3.9,0.7-5.9,1.1
		C246.9,92.8,246.7,91.6,246.4,90.2z"/>
	<path id="XMLID_457_" class="st1" d="M246.5,477.3c0.3-1.3,0.5-2.6,0.8-4c2,0.3,3.9,0.7,5.9,1c-0.2,1.3-0.4,2.6-0.6,4
		C250.5,478,248.5,477.6,246.5,477.3z"/>
	<path id="XMLID_456_" class="st1" d="M163.5,440c0.9-1.1,1.7-2.2,2.5-3.2c1.6,1.2,3.2,2.4,4.9,3.6c-0.8,1.1-1.5,2.1-2.4,3.3
		C166.8,442.4,165.2,441.2,163.5,440z"/>
	<path id="XMLID_455_" class="st1" d="M475.1,258.3c1.4-0.2,2.6-0.3,4-0.5c0.3,2,0.5,4,0.8,6.1c-1.4,0.1-2.7,0.3-4,0.4
		C475.6,262.2,475.3,260.3,475.1,258.3z"/>
	<path id="XMLID_454_" class="st1" d="M96.5,236.3c-0.4,2-0.9,3.9-1.3,5.9c-1.3-0.3-2.6-0.6-4-0.9c0.5-2,0.9-3.9,1.4-6
		C93.9,235.6,95.1,235.9,96.5,236.3z"/>
	<path id="XMLID_453_" class="st1" d="M202.8,103.9c1.9-0.8,3.7-1.7,5.6-2.5c0.5,1.3,1,2.5,1.6,3.8c-1.8,0.8-3.6,1.6-5.5,2.5
		C203.9,106.4,203.4,105.2,202.8,103.9z"/>
	<path id="XMLID_452_" class="st1" d="M343.2,95.7c-0.5,1.4-0.8,2.6-1.3,3.9c-2-0.6-3.8-1.1-5.8-1.7c0.4-1.3,0.7-2.5,1.1-3.9
		C339.2,94.6,341.2,95.1,343.2,95.7z"/>
	<path id="XMLID_451_" class="st1" d="M446.6,180.2c-1.1-1.7-2.2-3.4-3.3-5.1c1.1-0.8,2.2-1.5,3.4-2.3c1.1,1.7,2.2,3.4,3.3,5.2
		C448.9,178.7,447.8,179.4,446.6,180.2z"/>
	<path id="XMLID_450_" class="st1" d="M292,90.8c0-1.3,0-2.6,0-4c2,0.1,3.9,0.2,5.7,0.4c0.2,0,0.4,0.4,0.4,0.7
		c0,1.1-0.2,2.1-0.3,3.4C295.9,91.1,294,90.9,292,90.8z"/>
	<path id="XMLID_449_" class="st1" d="M112.6,373c-1.3,0.7-2.4,1.2-3.6,1.9c-0.9-1.8-1.9-3.6-2.8-5.5c1.2-0.6,2.4-1.2,3.6-1.8
		C110.7,369.4,111.6,371.2,112.6,373z"/>
	<path id="XMLID_448_" class="st1" d="M342,467.8c0.4,1.3,0.8,2.5,1.2,3.9c-2,0.6-3.9,1.1-5.9,1.7c-0.4-1.3-0.7-2.6-1.1-3.9
		C338.1,468.9,340,468.4,342,467.8z"/>
	<path id="XMLID_447_" class="st1" d="M92.6,332.2c-0.5-2-0.9-4-1.4-6c1.3-0.3,2.6-0.6,3.9-0.9c0.5,2,0.9,3.9,1.4,5.9
		C95.2,331.5,94,331.8,92.6,332.2z"/>
	<path id="XMLID_446_" class="st1" d="M208.5,466c-1.9-0.9-3.7-1.7-5.6-2.5c0.6-1.3,1.1-2.4,1.7-3.7c1.8,0.8,3.6,1.6,5.5,2.5
		C209.5,463.4,209,464.6,208.5,466z"/>
	<path id="XMLID_445_" class="st1" d="M470,219.2c-1.4,0.5-2.6,0.9-3.8,1.3c-0.7-1.9-1.4-3.7-2.1-5.7c1.2-0.5,2.4-0.9,3.8-1.5
		C468.6,215.3,469.3,217.1,470,219.2z"/>
	<path id="XMLID_444_" class="st1" d="M467.9,354c-1.3-0.5-2.5-1-3.8-1.4c0.7-1.9,1.3-3.7,2-5.7c1.2,0.4,2.5,0.9,3.8,1.3
		C469.3,350.2,468.6,352,467.9,354z"/>
	<path id="XMLID_443_" class="st1" d="M416.8,429.3c-1-1.1-1.9-2-2.6-2.8c1.4-1.5,2.7-3,4-4.5c1.1,1.1,2,2,2.7,2.7
		C419.6,426.2,418.2,427.7,416.8,429.3z"/>
	<path id="XMLID_442_" class="st1" d="M86.6,286.7c0-2,0-4,0-6c1.3,0,2.6,0,3.9,0c0,2,0,3.9,0,6C89.3,286.7,88.1,286.7,86.6,286.7z"
		/>
</g>
<g id="XMLID_3_">
	<path id="XMLID_15_" class="st1" d="M512.1,283.5c0,0,0,1.4-0.1,4.1c0,1.4-0.1,3-0.1,5c0,1,0,2.1-0.1,3.2c-0.1,1.2-0.2,2.4-0.3,3.7
		c-0.7,10.5-2.4,25.9-7.5,44.9c-0.7,2.4-1.3,4.8-2,7.3c-0.8,2.5-1.7,5-2.5,7.5c-0.8,2.6-1.8,5.2-2.9,7.8c-1,2.6-2,5.4-3.3,8.1
		c-4.6,10.9-10.6,22.3-18,33.9c-7.4,11.5-16.4,23.1-27,34.3c-5.3,5.6-11.1,11-17.2,16.3c-1.5,1.4-3.1,2.6-4.7,3.9
		c-1.6,1.3-3.2,2.6-4.8,3.9c-1.7,1.3-3.4,2.4-5.1,3.7c-1.7,1.2-3.4,2.5-5.2,3.7c-14,9.5-29.8,17.8-46.8,24.3
		c-2.1,0.9-4.3,1.5-6.5,2.3c-2.2,0.7-4.4,1.5-6.6,2.2c-2.2,0.6-4.5,1.3-6.7,1.9c-1.1,0.3-2.3,0.6-3.4,1c-1.1,0.3-2.3,0.5-3.4,0.8
		c-2.3,0.5-4.6,1.1-6.9,1.6c-2.3,0.5-4.7,0.9-7,1.3c-1.2,0.2-2.4,0.4-3.5,0.6l-1.8,0.3l-1.8,0.2c-2.4,0.3-4.8,0.6-7.2,0.9
		c-2.4,0.4-4.8,0.5-7.3,0.7c-2.4,0.2-4.9,0.4-7.3,0.5c-2.5,0.1-4.9,0.1-7.4,0.2c-1.2,0-2.5,0.1-3.7,0.1c-1.3,0-2.5-0.1-3.7-0.1
		c-2.5-0.1-5-0.2-7.4-0.2c-2.5-0.1-5-0.4-7.5-0.6c-5.1-0.3-10.1-1.1-15.1-1.8c-10-1.6-20.2-3.7-30.1-6.7c-5-1.3-9.9-3.2-14.9-4.9
		c-2.4-0.9-4.9-1.9-7.3-2.9L194,495l-3.6-1.7c-19.3-8.6-37.6-20.3-54.2-34.2c-2-1.8-4.1-3.6-6.1-5.4c-2-1.8-4-3.8-5.9-5.6
		c-1-0.9-2-1.9-2.9-2.8l-2.8-3l-2.8-3c-0.9-1-1.9-2-2.8-3c-7.3-8.2-14-17-20.2-26.2c-24.7-36.8-38.5-81.5-38.7-126.7l0.2-8.4
		c0-1.4,0-2.8,0.1-4.2l0.3-4.2l0.3-4.2l0.1-2.1c0.1-0.7,0.2-1.4,0.2-2.1l1-8.4c0.1-1.4,0.4-2.8,0.7-4.2l0.7-4.2l0.7-4.2l0.9-4.1
		c0.6-2.7,1.2-5.5,1.9-8.2l2.3-8.1c0.4-1.4,0.8-2.7,1.3-4l1.3-4l1.3-4c0.5-1.3,1-2.6,1.5-3.9c1-2.6,2-5.2,3.1-7.8
		c1.1-2.6,2.3-5.1,3.4-7.7c0.5-1.3,1.2-2.5,1.8-3.8l1.9-3.7l1.9-3.7c0.7-1.2,1.4-2.4,2.1-3.6c1.4-2.4,2.7-4.9,4.2-7.2
		c1.5-2.4,3-4.7,4.5-7c0.7-1.2,1.5-2.3,2.3-3.5l2.4-3.4l2.4-3.4c0.8-1.1,1.7-2.2,2.6-3.3c1.7-2.2,3.4-4.4,5.2-6.5
		c1.8-2.1,3.6-4.2,5.4-6.3c0.9-1.1,1.8-2.1,2.8-3.1l2.8-3l2.8-3c1-1,2-1.9,3-2.9c2-1.9,3.9-3.8,6-5.7c2.1-1.8,4.1-3.6,6.2-5.4
		c16.7-14,35.2-25.6,54.6-34.2l3.6-1.6l3.7-1.5c2.5-1,4.9-2,7.4-2.9c5-1.7,9.9-3.5,14.9-4.8c10-3,20.2-5,30.2-6.6
		c5.1-0.6,10.1-1.4,15.1-1.7c2.5-0.2,5-0.4,7.5-0.5c2.5-0.1,5-0.1,7.5-0.2c1.3,0,2.4-0.1,3.8-0.1c1.2,0,2.5,0.1,3.7,0.1
		c2.5,0.1,4.9,0.1,7.3,0.2c2.5,0.2,4.9,0.4,7.4,0.6c2.5,0.2,4.9,0.3,7.3,0.7c2.4,0.3,4.8,0.6,7.2,0.9l1.8,0.2l1.8,0.3
		c1.2,0.2,2.4,0.4,3.5,0.6c2.4,0.4,4.7,0.8,7,1.3c2.3,0.5,4.6,1.1,6.9,1.6c1.1,0.3,2.3,0.5,3.4,0.8c1.1,0.3,2.3,0.6,3.4,1
		c2.3,0.6,4.5,1.3,6.7,1.9c2.2,0.7,4.4,1.5,6.6,2.2c2.2,0.8,4.4,1.4,6.5,2.3c17.1,6.6,32.8,14.9,46.8,24.4c1.8,1.2,3.4,2.4,5.2,3.7
		c1.7,1.2,3.4,2.4,5.1,3.7c1.6,1.3,3.2,2.6,4.8,3.9c1.6,1.3,3.2,2.5,4.7,3.9c6.1,5.3,11.9,10.7,17.2,16.3
		c10.6,11.2,19.6,22.8,27,34.3c7.4,11.5,13.4,22.9,18,33.9c1.3,2.7,2.2,5.4,3.3,8.1c1,2.7,2.1,5.2,2.9,7.8c0.9,2.6,1.7,5.1,2.5,7.5
		c0.7,2.5,1.4,4.9,2,7.3c5.2,19,6.9,34.4,7.5,44.9c0.1,1.3,0.2,2.5,0.3,3.7c0.1,1.2,0.1,2.2,0.1,3.2c0,2,0.1,3.7,0.1,5.1
		C512.1,282.1,512.1,283.5,512.1,283.5L512.1,283.5z M511.7,283.5c0,0,0-1.4-0.1-4.1c0-1.4-0.1-3-0.1-5c0-1,0-2.1-0.1-3.2
		c-0.1-1.2-0.2-2.4-0.3-3.7c-0.7-10.5-2.4-25.9-7.8-44.7c-0.7-2.4-1.4-4.8-2.1-7.2c-0.8-2.4-1.7-4.9-2.6-7.5c-0.8-2.6-1.9-5.1-3-7.8
		c-1.1-2.6-2.1-5.3-3.4-8c-4.7-10.8-10.9-22-18.4-33.4c-7.6-11.3-16.6-22.7-27.4-33.5c-10.7-10.8-23.1-21.2-37-30.4
		c-13.9-9.2-29.5-17.2-46.3-23.5c-16.8-6.3-35-10.6-54-12.8c-2.4-0.3-4.7-0.5-7.1-0.7c-2.4-0.2-4.8-0.4-7.2-0.5
		c-2.4-0.1-4.9-0.1-7.3-0.2c-1.2,0-2.5-0.1-3.7-0.1c-1.1,0-2.4,0.1-3.6,0.1c-2.4,0.1-4.9,0.1-7.4,0.2c-2.5,0.1-4.9,0.3-7.4,0.5
		c-5,0.3-9.9,1-14.9,1.6c-9.9,1.6-19.9,3.5-29.7,6.4c-5,1.3-9.8,3.1-14.7,4.7c-2.4,0.9-4.8,1.9-7.2,2.8l-3.6,1.4l-3.6,1.6
		c-19.1,8.4-37.3,19.7-53.8,33.4c-2,1.8-4.1,3.5-6.1,5.3c-2,1.8-3.9,3.7-5.9,5.5c-1,0.9-2,1.8-2.9,2.8l-2.8,2.9l-2.8,2.9
		c-0.9,1-1.9,1.9-2.8,3c-1.8,2-3.6,4.1-5.4,6.1c-1.8,2.1-3.4,4.3-5.1,6.4c-0.8,1.1-1.7,2.1-2.5,3.2l-2.4,3.3l-2.4,3.3
		c-0.8,1.1-1.6,2.2-2.3,3.4c-24.5,36.4-38.3,80.6-38.5,125.4l0.2,8.3c0,1.4,0,2.8,0.1,4.2l0.3,4.2l0.3,4.2l0.1,2.1
		c0.1,0.7,0.2,1.4,0.2,2.1l1,8.3c0.1,1.4,0.4,2.8,0.7,4.1l0.7,4.1l0.7,4.1l0.9,4.1c0.6,2.7,1.2,5.5,1.9,8.1l2.2,8
		c0.4,1.3,0.8,2.7,1.2,4l1.3,4l1.3,4c0.5,1.3,1,2.6,1.5,3.9c1,2.6,2,5.2,3.1,7.7c1.1,2.5,2.3,5.1,3.4,7.6c0.5,1.3,1.2,2.5,1.8,3.7
		l1.9,3.7l1.9,3.7c0.7,1.2,1.4,2.4,2,3.6c1.4,2.4,2.7,4.8,4.2,7.2c1.5,2.3,3,4.6,4.4,7c0.7,1.2,1.5,2.3,2.3,3.4l2.4,3.4l2.4,3.4
		c0.8,1.1,1.7,2.2,2.5,3.2c1.7,2.1,3.4,4.3,5.1,6.4c1.8,2.1,3.6,4.1,5.4,6.2c0.9,1,1.8,2,2.8,3l2.8,2.9l2.8,2.9c1,1,2,1.9,2.9,2.8
		c2,1.9,3.9,3.8,5.9,5.6c2,1.8,4.1,3.5,6.1,5.3c16.6,13.8,34.9,25.1,54.1,33.4l3.6,1.6l3.6,1.4c2.4,0.9,4.8,1.9,7.3,2.8
		c4.9,1.6,9.8,3.4,14.8,4.6c9.9,2.9,19.9,4.8,29.8,6.3c5,0.6,10,1.3,14.9,1.5c2.5,0.2,4.9,0.4,7.4,0.5c2.5,0,5,0.1,7.4,0.1
		c1.2,0,2.5,0.1,3.7,0.1c1.2,0,2.4-0.1,3.7-0.1c2.4-0.1,4.9-0.1,7.3-0.2c2.4-0.2,4.8-0.4,7.2-0.6c2.4-0.2,4.8-0.3,7.2-0.7
		c19-2.3,37.2-6.6,54-13c16.8-6.3,32.4-14.4,46.3-23.6c13.9-9.2,26.3-19.6,37-30.4c10.7-10.9,19.8-22.2,27.4-33.5
		c7.6-11.3,13.7-22.6,18.4-33.4c1.3-2.7,2.3-5.4,3.4-8c1.1-2.6,2.1-5.2,3-7.8c0.9-2.6,1.7-5.1,2.6-7.5c0.7-2.5,1.4-4.9,2.1-7.2
		c5.4-18.9,7.1-34.3,7.8-44.7c0.1-1.3,0.2-2.5,0.3-3.7c0.1-1.2,0.1-2.2,0.1-3.2c0.1-2,0.1-3.7,0.1-5
		C511.7,284.9,511.7,283.5,511.7,283.5L511.7,283.5z"/>
</g>
<g id="XMLID_6_">
	<g id="XMLID_105_">
		<g id="XMLID_109_">
			<g id="XMLID_110_">
				<g id="XMLID_111_">
					<path id="XMLID_198_" class="st1" d="M179.6,535.7c-2.3-1-1.7-0.2-2-0.3C181.5,536.9,179.5,535.6,179.6,535.7z"/>
					<polygon id="XMLID_197_" class="st1" points="219.5,547.7 218.7,547.7 224.8,548.7 					"/>
					<path id="XMLID_196_" class="st1" d="M257.9,554.2c-1.8-0.5-5.3-1-9.2-1.3c-1-0.1-2-0.2-3-0.3l-1.5-0.2c-0.5-0.1-1-0.2-1.5-0.2
						c-2-0.3-3.9-0.6-5.6-1l-1.1-0.4l-3.2,0c2.1,0.3,4.3,0.7,6.6,1c2.3,0.3,4.6,0.8,6.9,0.9C250.7,553.3,254.9,553.8,257.9,554.2z"
						/>
					<path id="XMLID_195_" class="st1" d="M278.6,556.8c-1.3-0.3,4.5-0.1-4.9-0.2c0.5,0,0.6,0.1,0.9,0.1
						C275.4,556.8,276.6,556.8,278.6,556.8z"/>
					<path id="XMLID_194_" class="st1" d="M274.6,556.7C270.4,556.7,277.3,557,274.6,556.7L274.6,556.7z"/>
					<path id="XMLID_193_" class="st1" d="M293.6,556.5l-5.4,0.4c1.1,0.1,6,0,4.2,0.2C297.9,556.8,296.8,556.7,293.6,556.5z"/>
					<path id="XMLID_192_" class="st1" d="M298.7,555.8c0,0-0.7,0.1-1.4,0.2c-0.7,0-1.4,0.1-1.4,0.1
						C296.4,556.1,297.2,556.1,298.7,555.8z"/>
					<path id="XMLID_191_" class="st1" d="M290,556.4l5.9-0.4c-0.8-0.1-0.9-0.3-2.7,0.2C293.7,556,292.5,556.2,290,556.4z"/>
					<path id="XMLID_190_" class="st1" d="M286.6,556.4c-1.5,0-3.3-0.1-3.9-0.2c-0.7-0.1-0.3-0.1,2.4-0.3c-5.2,0-7.4,0.1-7,0.2
						c0.2,0.1,1,0.1,2.5,0.2C282,556.4,284,556.6,286.6,556.4z"/>
					<path id="XMLID_189_" class="st1" d="M259.9,553.6c0,0-1-0.1-2-0.2c-0.5-0.1-1-0.2-1.4-0.2c-0.4-0.1-0.6-0.1-0.6-0.1l-3.5-0.2
						c0.9,0,2.8,0.3,4.5,0.6C258.6,553.6,260,553.7,259.9,553.6z"/>
					<path id="XMLID_188_" class="st1" d="M327.3,553.5c0.3-0.2-1.9-0.1-2.3-0.2c0,0-0.2,0.1-0.6,0.1c-0.4,0.1-0.9,0.2-1.4,0.3
						c-1,0.2-2,0.3-2,0.3C323.1,554,327,553.3,327.3,553.5z"/>
					<path id="XMLID_187_" class="st1" d="M325,553.3l5.9-1.3C325.6,552.9,324.6,553.2,325,553.3z"/>
					<path id="XMLID_186_" class="st1" d="M299.6,554.9c0,0-0.6,0.1-1.5,0.2c-0.9,0.1-2.1,0.2-3.4,0.3c-2.5,0.2-4.9,0.4-4.9,0.4
						s2.9-0.2,5.8-0.4C297.1,555.4,298.6,555.1,299.6,554.9c1.2-0.1,1.9-0.1,1.9-0.1L299.6,554.9z"/>
					<path id="XMLID_185_" class="st1" d="M349.8,549c0,0-0.2,0.1-0.5,0.2c-0.3,0.1-0.7,0.2-1.1,0.4c-0.8,0.3-1.6,0.5-1.6,0.5
						s1.4-0.5,2.9-0.9c1.4-0.5,2.9-1.1,2.9-1.1L349.8,549z"/>
					<path id="XMLID_184_" class="st1" d="M364.4,544.8c-2.3,1.1,3.4-0.6,1,0.4c3.9-1.4,7.2-2.6,10.1-3.9
						C372.3,542.5,368.9,543.5,364.4,544.8z"/>
					<path id="XMLID_183_" class="st1" d="M380.3,539c-1.6,0.7-3.1,1.4-4.9,2.2C377.1,540.5,378.7,539.8,380.3,539z"/>
					<path id="XMLID_182_" class="st1" d="M340.9,550.1c0.5,0,1.4,0,4.7-0.6l-2.4,0.1C342.5,549.8,341.7,550,340.9,550.1z"/>
					<path id="XMLID_181_" class="st1" d="M343.1,549.6L343.1,549.6c2.6-0.6,4.3-0.9,5.1-1.1C347.5,548.7,346,549,343.1,549.6z"/>
					<path id="XMLID_180_" class="st1" d="M340.3,550.3c0.2,0,0.4-0.1,0.6-0.1C340.6,550.2,340.5,550.2,340.3,550.3z"/>
					<path id="XMLID_179_" class="st1" d="M315.3,553.9c3.5-0.7,10.7-1.8,3.6-1.3C316.4,553.2,320.5,552.9,315.3,553.9z"/>
					<path id="XMLID_178_" class="st1" d="M337.3,550.4c0,0-0.4,0.1-1,0.2c-0.6,0.1-1.4,0.2-2.2,0.3c-1.6,0.2-3.1,0.5-3.1,0.5
						c0.1,0.1,1.3,0.1-0.4,0.5c0,0,1.7-0.4,3.3-0.7c0.8-0.2,1.7-0.4,2.3-0.5C336.9,550.5,337.3,550.4,337.3,550.4z"/>
					<polygon id="XMLID_177_" class="st1" points="340.3,549.6 337.3,550.4 339.6,549.9 					"/>
					<path id="XMLID_176_" class="st1" d="M369.9,542.3c1.3-0.5,2.6-1,4.1-1.5c1.4-0.6,2.9-1.1,4.5-1.8c-1.7,0.6-3.4,1.3-5.2,1.8
						c-1.8,0.6-3.5,1.1-5.2,1.7C367.6,542.8,366.2,543.6,369.9,542.3z"/>
					<path id="XMLID_175_" class="st1" d="M357,546.2c0.2-0.1,0.4-0.1,0.6-0.2C357.2,546.1,356.9,546.1,357,546.2z"/>
					<path id="XMLID_174_" class="st1" d="M409,525.6c-0.2,0.1-0.3,0.1-0.5,0.2c0,0,0,0.1-0.1,0.1L409,525.6z"/>
					<path id="XMLID_173_" class="st1" d="M367.5,542.7c-2.6,0.8-4.1,1.4-5.6,2c1.9-0.7,4-1.4,6.2-2.1
						C368.3,542.4,368.3,542.4,367.5,542.7z"/>
					<path id="XMLID_172_" class="st1" d="M389,535.4c-0.7,0.2-1.4,0.5-2.1,0.8c-0.8,0.3-1.5,0.5-2.3,0.8c0.7-0.2,1.7-0.5,2.6-0.8
						C388,535.9,388.7,535.6,389,535.4z"/>
					<path id="XMLID_171_" class="st1" d="M358.5,545.9c-0.1,0-0.2,0.1-0.4,0.1C359,545.9,358.9,545.8,358.5,545.9z"/>
					<path id="XMLID_170_" class="st1" d="M358.5,545.9c1.3-0.4,2.4-0.8,3.4-1.2c-1.6,0.5-3.1,0.9-4.3,1.3
						C357.9,545.9,358.2,545.9,358.5,545.9z"/>
					<path id="XMLID_169_" class="st1" d="M416.6,518.3c-0.1,0.3-1.7,1.4-3.9,2.7c-1.1,0.7-2.4,1.4-3.8,2.1
						c-1.4,0.7-2.9,1.3-4.3,1.9c-5.3,2.9-1.2,2.4,3.9,0.7c0.1-0.3,0.1-0.3,5.4-3.6c-1,0.4-4.1,2.1-6.5,3c-2.3,1-3.8,1.6-1.6,0.2
						c1.8-1,3.1-1.6,4.1-2.1c1-0.5,1.6-0.8,2.1-1.1c1.1-0.5,1.7-0.7,3.5-1.6c-1.6,0.6,0.6-0.8,3-2.4c2.4-1.5,4.8-3.4,3.9-3.2
						c0,0-0.4,0.3-0.9,0.6c-0.6,0.4-1.3,0.9-2.1,1.3c-1.6,0.9-3.1,1.9-3.1,1.9C416.2,518.9,418.4,517.5,416.6,518.3z"/>
					<path id="XMLID_168_" class="st1" d="M397.8,531l-2.3,1.1c1.4-0.6,2.6-1,3.8-1.5c1.3-0.5,2.7-1.1,4.5-1.8
						c3.8-2.1,4.5-2.6,4.7-2.9c0,0-2.9,1.4-5.7,2.8c-1.4,0.7-2.9,1.4-3.9,1.9c-1.1,0.5-1.8,0.8-1.8,0.8L397.8,531z"/>
					<path id="XMLID_167_" class="st1" d="M384.7,536.6c0.4-0.3,1.1-0.6,1.8-1c0.7-0.4,1.4-0.8,2-1.1c1.2-0.7,1.6-1.1-0.2-0.5
						c-0.9,0.4-1.6,0.7-2.2,1c-0.6,0.3-1.1,0.5-1.6,0.6c-0.8,0.4-1.4,0.6-1.8,0.8c-0.8,0.4-1.3,0.8-3.4,1.7
						c11.4-4.4-3.2,1.5,5.2-1.4c-2.2,0.9-4.2,1.7-6.1,2.5c2.1-0.7,4.1-1.4,6-2.1c-0.1,0-0.2,0.1-0.3,0.1l-0.1,0l0,0
						c-0.5,0.1-0.7,0.2-0.1,0c0,0,0.2-0.1,0.2-0.1C384.3,536.9,384.5,536.8,384.7,536.6c3.3-1.2,0.6-0.1-0.5,0.4
						c0,0-0.1,0.1-0.1,0.1c0,0,0,0,0,0c0,0,0.7-0.3,1.8-0.7c1.1-0.4,2.4-1.1,3.8-1.7c2.8-1.3,5.6-2.6,5.6-2.6
						c-1.2,0.5-2.5,1.1-4.2,1.8c-0.8,0.4-1.8,0.8-2.8,1.3c-0.5,0.2-1.1,0.5-1.7,0.7C386,536.1,385.4,536.4,384.7,536.6z"/>
					<path id="XMLID_166_" class="st1" d="M325.2,550.8c0.4,0,0.4,0,0.4,0C326.3,550.6,326.6,550.5,325.2,550.8z"/>
					<path id="XMLID_165_" class="st1" d="M330.1,550.2c-0.9,0.2-1.6,0.5-4.4,1c-2.5,0.3,0-0.2-0.2-0.3c-1.7,0.4-6,1.3-0.5,0.6
						l0.8-0.2c4.9-0.7,11.2-1.2,10.4-1C334.7,550,333.4,550,330.1,550.2z"/>
					<path id="XMLID_164_" class="st1" d="M358,544.6c0,0,0.6-0.2,1.5-0.5c0.9-0.3,2.1-0.6,3.3-1.1c2.4-0.8,4.8-1.7,4.8-1.7l-5,1.3
						l0.3,0.1c-1.4,0.4-2.3,0.7-3,0.9c-0.7,0.2-1.1,0.3-1.3,0.4C358.2,544.4,358.4,544.4,358,544.6z"/>
					<path id="XMLID_163_" class="st1" d="M410.2,525.3l-1,1c0,0,1.3-0.8,2.5-1.7c1.2-0.9,2.4-1.7,2.4-1.7L410.2,525.3z"/>
					<path id="XMLID_162_" class="st1" d="M421.8,518.8l-0.2,0.6c0,0,0.2-0.1,0.5-0.3c0.3-0.2,0.6-0.4,1-0.7c0.7-0.5,1.4-1,1.4-1
						L421.8,518.8z"/>
					<path id="XMLID_161_" class="st1" d="M247,18l-2.9,0.5C245.4,18.2,246.3,18.1,247,18z"/>
					<path id="XMLID_160_" class="st1" d="M268.2,15.9l0.5-0.2C267.7,15.8,267.3,15.9,268.2,15.9z"/>
					<path id="XMLID_159_" class="st1" d="M553,241.1c-0.4-4.4-0.7-9.3-1-8.7l-0.2,1.4C552.4,236.8,552.8,239.1,553,241.1z"/>
					<path id="XMLID_158_" class="st1" d="M435.2,59.8c0.3,0.3,0.7,0.5,1,0.8c0.9,0.5,1.8,1,2.6,1.4
						C437.7,61.3,436.5,60.5,435.2,59.8z"/>
					<path id="XMLID_157_" class="st1" d="M431.7,59.6l-4.6-3.3C428.1,57,429.5,58.1,431.7,59.6z"/>
					<path id="XMLID_156_" class="st1" d="M138.7,58.5c0,0-0.7,0.5-1.3,1.1c-0.7,0.6-1.3,1.1-1.3,1.1c1.1-0.8,1.8-1.2,2.3-1.5
						c0.4-0.3,0.6-0.5,0.6-0.5C139,58.5,138.6,58.7,138.7,58.5z"/>
					<path id="XMLID_155_" class="st1" d="M517.3,423.9c2-3.2,3.6-5.7,4.9-8C519.7,419.7,517.6,422.7,517.3,423.9z"/>
					<path id="XMLID_154_" class="st1" d="M254.8,12.3c-1.8,0.3-2.6,0.5-2.5,0.6C254.2,12.6,255.2,12.4,254.8,12.3z"/>
					<path id="XMLID_153_" class="st1" d="M527.3,406.2c-0.3,0.6-0.7,1.1-1,1.7c-0.6,1.2-1.2,2.5-1.8,3.8c-0.7,1.3-1.3,2.7-2.2,4.1
						c1-1.4,1.8-3,2.7-4.6C525.7,409.6,526.6,407.9,527.3,406.2z"/>
					<path id="XMLID_152_" class="st1" d="M59.2,430.2c0.2,0.3,0.4,0.6,0.5,0.8C59.8,431,59.6,430.7,59.2,430.2z"/>
					<path id="XMLID_151_" class="st1" d="M145.4,518.1c-1.1-0.6-2.8-1.6-4.5-2.5C141.8,516.1,143.1,516.8,145.4,518.1z"/>
					<path id="XMLID_150_" class="st1" d="M465.1,487.5C463,489.4,464.8,487.9,465.1,487.5L465.1,487.5z"/>
					<path id="XMLID_149_" class="st1" d="M453.5,495c0.4-0.4,0.7-0.8,0.7-0.9C454.1,494.4,453.9,494.7,453.5,495z"/>
					<path id="XMLID_148_" class="st1" d="M536.1,379.6c0-0.1,0.1-0.1,0.1-0.2C535.8,380.1,535.8,380,536.1,379.6z"/>
					<path id="XMLID_147_" class="st1" d="M461.7,490.1c0.8-0.6,1.8-1.4,2.8-2.2C464.1,488.3,463.2,488.9,461.7,490.1z"/>
					<path id="XMLID_146_" class="st1" d="M462.3,489.9c-0.8,0.6-1.3,1.1-1.9,1.6C460.2,491.8,460.4,491.6,462.3,489.9z"/>
					<path id="XMLID_145_" class="st1" d="M467.9,484.8c-1.2,1.1-2.3,2.1-3.4,3.1c0.4-0.4,0.6-0.5,0.5-0.4
						C465.7,487,466.5,486.2,467.9,484.8z"/>
					<path id="XMLID_144_" class="st1" d="M23.9,212.7c-0.1,0.2-0.1,0.4-0.2,0.6C23.1,216,23.4,214.8,23.9,212.7z"/>
					<path id="XMLID_143_" class="st1" d="M527.9,172.9c0.1,0.1,0.1,0.2,0.1,0.3c0-0.1-0.1-0.3-0.1-0.4L527.9,172.9z"/>
					<path id="XMLID_142_" class="st1" d="M523.4,164c2.3,3.6,3.4,5.7,4.6,8.7c0,0,0-0.9-0.1-1.8c0-0.4,0-0.9-0.1-1.2
						c0-0.3-0.1-0.5-0.1-0.5L523.4,164z"/>
					<path id="XMLID_135_" class="st1" d="M197.3,29.9l6.7-1.8c-3.9,1.6-7.3,2.8-8.9,3.5c-0.8,0.3-1.2,0.5-1,0.5
						c0.2,0,1.1-0.2,2.6-0.6c0.1-0.4,1.8-1.1,4.2-2c2.4-0.9,5.6-2,8.9-2.9c3.3-0.9,6.5-1.8,9-2.6c2.5-0.7,4.2-1.2,4.4-1.6l4.5-0.7
						c-1.3,0.3-1.5,0.4-2.7,0.7c8.8-1.3,6.3-2.4,17.7-4.2c1-0.2,1.9-0.3,2.7-0.3c0.8-0.1,1.4-0.1,1.9-0.1c0.9,0,0.9,0.1-0.5,0.3
						l8.8-1.4c1.3-0.2,1.8-0.1,1.6,0c-0.2,0.1-0.9,0.2-2.2,0.4c0,0,0.8-0.1,2.1-0.3c1.3-0.1,3-0.2,4.7-0.4c3.4-0.3,6.8-0.6,6.8-0.6
						l-0.1,0c1-0.2,2.6-0.4,4.2-0.5c1.6-0.2,3.3-0.3,4.3-0.4c3.5,0.1-1.7,0.2-0.8,0.3c0,0,1.9-0.1,3.8-0.3c0.9-0.1,1.9-0.1,2.6-0.2
						c0.7,0,1.2,0,1.2,0c1.5,0.2,0.7,0.4-1.1,0.5c-1.8,0.2-4.7,0.3-7.3,0.4c3.5,0.6,5.1,0.4,7.7,0.2c2.6-0.1,6.2-0.3,13.8,0.4
						c0,0-0.4,0-1.1,0c-0.7,0-1.6,0-2.5,0c-1.8,0-3.6,0-3.6,0c1.1,0.2,2.3,0.4,3.6,0.5c1.3,0.1,2.7,0.2,4.1,0.4
						c3,0.3,6.3,0.6,10.3,1.1c-1.9-0.4-16-2.4-7.8-2.1c2.3,0.3,5.3,0.5,9.8,0.6c0,0.5,4.3,0.9,9.7,1.5l-0.5,0.6
						c1.5,0.1,2.5,0.2,3.4,0.3c0.8,0.1,1.4,0.1,2,0.1c1.1,0,1.8,0,3.5,0.2c6.4,1.2,7.7,1.9,9.1,2.6c10.1,2.4-6.9-2.4,5.2,0.2
						c2.1,0.5,4.1,1,6,1.4c1.9,0.5,3.7,1,5.6,1.5c3.8,1,7.8,1.8,12.8,3.4c5.7,2.1-1.1,0,0.9,0.9l5.3,1.2c1.2,0.4,0.8,0.4,0.6,0.4
						c1.1,0.3,1.7,0.5,2,0.5c0.4,0.1,0.5,0,0.7,0c0.4,0,1.2,0.1,4.6,1.4c0.5,0,1.6,0.4,3.1,1c0.7,0.3,1.6,0.7,2.5,1.1
						c0.5,0.2,0.9,0.4,1.4,0.6c0.5,0.2,1,0.5,1.5,0.8c2,1,4.2,2.2,6.5,3.2c2.2,1.1,4.5,2,6.5,2.8c1.9,1.2-1.1-0.1-0.6,0.4
						c5.5,2.5,7.9,3.6,10,4.6c2.1,1,3.9,1.9,8.4,4.1c0,0,1.8,1.2,3.6,2.3c0.9,0.6,1.7,1.2,2.4,1.7c0.6,0.5,1.1,0.8,1.1,0.8
						c-5-3.8,2,0,8.2,3.5c-1.7-1.4-3.2-2.6-4.2-3.4c0,0,2.4,1.5,4.8,2.9c1.2,0.7,2.3,1.5,3.2,2.1c0.9,0.6,1.5,1,1.5,1
						c1,0.9,0,0.4-1.7-0.5c0.7,0.4,1.3,0.8,1.8,1.1c3.1,2.5,1.2,1.6-1.3,0.2c-1-0.9-2.1-1.8-3-2.7c-2.5-1.2-4.9-2.2-4.7-1.6
						c0.6,0.3,1.9,1,3.2,1.8c-0.7-0.3-1.1-0.5-0.9-0.2c0.3,0.3,1.4,0.7,2.9,1.7l1.6,2.1l0.7,0.1c0,0,2.9,2.2,5.8,4.4
						c1.5,1.1,2.8,2.3,3.9,3.2c1,0.9,1.7,1.5,1.7,1.5c2.2,1.5,4.2,2.9,6.4,4.4c2.1,1.6,4.2,3.2,6.4,4.9c1.1,0.9,2.3,1.8,3.5,2.7
						c1.2,1,2.4,2,3.6,3.2c1.2,1.1,2.6,2.3,3.9,3.6c1.4,1.3,2.8,2.6,4.3,4.1c-3.2-2.7-1.2-0.1-1.8,0.2c-1.3-1.9-3.7-4-6.4-6.5
						c-1.4-1.2-2.8-2.6-4.4-3.9c-1.6-1.3-3.2-2.7-4.8-4.2c3.3,3,2.4,2.6,1.5,1.9c0,0,0.7,0.6,1.9,1.5c0.6,0.5,1.2,1,1.9,1.6
						c0.7,0.6,1.4,1.2,2.1,1.9c2.8,2.6,5.7,5.1,5.7,5.1c-0.3,0.1,0.2,0.7,1.1,1.7c0.9,1,2.2,2.4,3.5,4c-0.7-1.5,1.4,0.5,4.2,3.4
						c0.7,0.7,1.4,1.5,2.2,2.3c0.7,0.8,1.4,1.7,2.2,2.5c1.4,1.7,2.8,3.2,3.9,4.4c0,0.5-1.2-0.4-6.1-6.3c2.4,3.5,4.4,5.3,6.3,7.2
						c2,1.8,3.8,3.8,6.1,7.3c-1.1-1.5-1.7-2.3-2.3-2.8c1.4,1.6,3.7,4.6,5.4,6.9c1.7,2.3,2.7,4.1,1.8,3.2l-1.1-1.5
						c1.7,2.5,3.9,5.8,6.3,9.2c2.3,3.4,4.5,7.2,6.7,10.6c1.1,1.7,2,3.4,3,4.9c0.9,1.5,1.7,2.9,2.5,4.1c1.5,2.4,2.6,4,2.9,4.3
						c0,0.2-1.6-1-2.2-1.5c0,0,0.2,0.3,0.6,0.8c0.4,0.5,0.8,1.2,1.4,2.1c1.2,1.7,2.7,4,4.2,6.4c1.6,2.3,3,4.7,4.1,6.5
						c1.1,1.8,1.8,3,1.8,3c-1.4-1.5-0.1,6-4.5-3.2c0.5,1.4,1.1,2.9,1.9,4.8c0.8,1.9,1.9,4.1,3,6.9c-0.6-1.9-0.8-5.1,0.2-2.5
						c1,3.7,1.3,4.9,1.8,6.4c0.2,0.7,0.5,1.5,0.8,2.7c0.4,1.2,0.9,2.7,1.4,4.9c-0.8-2.9,1.3-0.1,2.8,4.4c-0.4-0.7-1,0.7-1.6-0.9
						c0,0,1.2,2.7,2.4,5.4c0.6,1.4,1.1,2.8,1.5,3.8c0.4,1,0.7,1.7,0.7,1.7c-1-2.8-1.1-0.2-0.7,2.4c-0.1-0.6,0.6,1.8,1.4,4.8
						c0.7,3,1.4,6.6,1.9,8.1l-0.8-4.9c0.7,3.3,1.3,5.7,1.9,7.7c0.3,1,0.6,1.9,0.8,2.7c0.3,0.8,0.5,1.6,0.7,2.4
						c0.5,1.6,1,3.2,1.5,5.2c0.5,2,1.1,4.4,1.4,7.7c-0.4-1.6-1.9-3.7-1.2,3c0.2,0.7,0.6,1.9,1.1,3.5c0.5,1.6,1.1,3.5,1.6,5.7
						c0.5,2.2,1,4.7,1.5,7.4c0.2,1.3,0.5,2.7,0.6,4.1c0.1,1.4,0.3,2.9,0.4,4.4l-0.3,2.3c0,0,0.2,2.3,0.3,4.5
						c0.1,1.1,0.1,2.3,0.1,3.1c0,0.9,0,1.4,0,1.4c-0.3-2.8-1.2-8.2-2-13.9c-0.3-2.8-1-5.8-1.5-8.5c-0.5-2.7-0.9-5.3-1.3-7.4
						c0.2,5-0.3,1.4,0.3,8.8c-0.1,2.6-0.8-4-1-6.2c0,0,0.3,4.3,0.6,8.6c0.2,2.2,0.2,4.3,0.2,5.9c0,1.6,0,2.7,0,2.7
						c0.3-0.4,0.6,2.9,0.8,6.2c0.1,3.3,0.2,6.7,0.4,6.4c0,0,0-1.2,0-2.9c0-0.9,0-1.9,0-3c-0.1-1.1-0.1-2.3-0.2-3.5
						c-0.3-4.7-0.6-9.4-0.6-9.4c0.3-0.4,0.9,2.3,1.4,6.7c0.1,1.1,0.2,2.3,0.4,3.6c0.1,1.3,0.2,2.6,0.2,4c0,2.8,0,5.9-0.1,9
						c-0.3,3.1-1.1-2.4-1.4-2.1c0,0.4,0.1,1.3,0.1,2.5c0,1.2,0,2.6-0.1,4.1c-0.1,2.9-0.3,5.7-0.5,6.2l0-5.2
						c-0.4,3.4-0.3,6.2-0.4,9.2c-0.1,3-0.4,6.1-1.2,10.2c-0.2,1.4-0.6,3.5-1.1,5.3c-0.5,1.8-0.8,3.3-0.7,3.5c1.5-4.4,4.1-5,4.1-1.8
						c-0.1,0.5-0.9,4.2-1.8,8.1c-0.2,1-0.4,2-0.7,3c-0.3,1-0.6,1.9-0.8,2.8c-0.5,1.7-0.9,3.2-1.2,3.9c-1.6,4.5,0.1-7.2-1.2-3.4
						c0.1,0.2-0.2,2.8-0.4,3.9c-0.8,2.9-0.3-1.3-1.6,5c0.4,1.2-3.6,12.7-0.3,3.1c-0.8,3.1-1.2,4.7-1.8,6.5c-0.6,1.7-1.1,3.6-2.3,7.2
						c0.6-1.1,0.4,0.6-0.1,3.4c-0.3,1.4-0.6,3-1.1,4.7c-0.2,0.8-0.4,1.7-0.7,2.5c-0.3,0.8-0.5,1.6-0.8,2.4c0-0.4-0.8,0.8-1.1,1.5
						c-1.2,3-2.3,5.7-3.3,8.2c-1.1,2.5-2.2,4.7-3.2,6.9c-1.1,2.2-2,4.4-3.2,6.7c-1.2,2.3-2.4,4.7-3.9,7.4c-0.3,0.5-1.2,2-1.9,3.1
						c-0.7,1.1-1.2,1.8-0.7,0.6c-0.8,1.6-1.4,3.1-3.2,6.3c-4.1,6,4.1-7.3,0.7-2.8c0.1,0.3-1,2.5-2.5,5.2c-0.7,1.3-1.5,2.8-2.3,4.2
						c-0.8,1.4-1.6,2.8-2.3,3.9c0.4-0.3,1-1,1.7-2.1c0.7-1.1,1.7-2.5,2.5-4.1c1.7-3.1,3.6-6.7,4.8-9.1c0.4,0.2-0.4,2.4-2.1,6
						c-0.8,1.8-1.8,4-3.1,6.3c-1.3,2.3-2.8,4.9-4.5,7.7c-1.3,2.2-2.2,3.5-2.8,4.2c-0.6,0.7-0.8,0.9-0.9,0.9c-0.2,0,0.3-0.9-0.2-0.2
						c-2.8,3.9-4.8,6.7-6.2,8.9c-1.6,2.2-2.6,3.8-3.7,5.3c-1,1.5-2,3-3.4,4.8c-1.4,1.8-3.3,3.9-6,6.8c-4.6,4.4-1-0.5-2.2,0.3
						c2.7-3.2,4.9-5.5,6.8-7.6c1.9-2.1,3.5-4,5.3-6.2l-4.5,5.2c1.5-2.2,4.8-6.6,6.8-8.8c-0.9,1-2.6,3-4.8,5.7
						c-1.1,1.4-2.3,2.9-3.7,4.5c-1.4,1.6-2.9,3.2-4.4,5c-1.5,1.7-3.1,3.5-4.7,5.3c-1.7,1.7-3.4,3.4-5,5.1c-0.8,0.8-1.6,1.6-2.4,2.4
						c-0.8,0.8-1.6,1.6-2.4,2.3c-1.6,1.4-3.1,2.8-4.5,4c-1.8,1.9-5,5.1-3.3,3.8l3.4-3.2c3.4-2.6-6,6.4-1.6,2.5
						c-0.5,0.6-1.1,1.1-1.7,1.7c-0.6,0.6-1.2,1.1-1.8,1.7c-1.2,1.1-2.5,2.3-3.9,3.5c-1.4,1.2-2.8,2.5-4.3,3.8
						c-1.6,1.2-3.3,2.5-5.1,3.8l-1.7,0.5c0.3,0,4.8-3.2,6.7-4.9c-1.4,1.2-4.2,3.1-7,5.1c-1.4,1-2.8,2-4,2.9
						c-1.3,0.9-2.3,1.7-3.1,2.5c0,0,1.3-0.8,2.7-1.6c0.7-0.4,1.3-0.8,1.8-1.1c0.5-0.3,0.8-0.5,0.8-0.5c-1.2,1-2.5,2.1-3.9,3.1
						c-1.4,1.1-2.8,2.2-4.3,3.3c-1.5,1.1-3,2.3-4.6,3.4c-1.6,1.1-3.3,2.1-5,3.1c3.4-1.4,1.5-1,6.6-3.4c-2.2,1,1.9-1.8,5.7-4.5
						c1.9-1.3,3.8-2.6,4.7-3.3c0.9-0.8,0.9-0.9-0.8,0.1c2.5-1.4,4.5-2.8,6.7-4.4c2.2-1.6,4.6-3.3,7.6-5.4c-0.3,0-2.3,1.4,2.8-2.8
						c0.2-0.2,0.7-0.7,1-1.1c0.2-0.1,0.2-0.2,0.4-0.3c-0.1,0.1-0.2,0.1-0.3,0.2c0.2-0.2,0.2-0.2-0.1,0.1c-1.3,0.9-2.3,1.7-2.8,1.9
						c1.1-1.3,3.7-3.5,6.2-5.9c2.5-2.4,5-4.8,6.2-6.1c2.9-2.6-1,1.3,0.7,0c0,0,0.9-1,1.8-1.9c0.9-1,1.7-2,1.7-2
						c0.7,0,7.8-6.9,1.5-0.1l5.8-5.9c0.9-0.8,1.8-1.8,2.8-2.8c0.9-1,1.9-2.1,2.9-3.1c1.9-2.1,3.7-4.1,4.9-5.8c2.5-3,5.8-8,3.9-5.2
						c0,0,0.5-0.6,1.2-1.6c0.7-1,1.8-2.2,2.7-3.6c1.8-2.7,3.7-5.4,3.7-5.4l0.2,0c3.9-5.1,7.2-10.9,10.8-16.6c3.3-6,7-12,10.6-18.4
						c0.9-1.9,1.9-3.9,3-6.2c1-2.3,2.2-5,3.8-8.3l0.9-1.1c1.2-2.5,2.7-6.4,4.1-9.9c1.4-3.5,2.7-6.6,2.9-7.8c0.7-1.3,1.6-3.6,2.6-6.4
						c0.5-1.4,1-2.9,1.6-4.5c0.5-1.6,0.9-3.3,1.4-5.1c0.5-1.7,0.9-3.5,1.4-5.3c0.5-1.8,1-3.5,1.3-5.2c0.7-3.4,1.4-6.4,2-8.8
						l-0.4-0.5c0.2-0.8,0.4-1.6,0.6-2.5c0.1-0.8,0.3-1.6,0.4-2.5c0.3-1.7,0.5-3.3,0.8-5.1c0.3-1.7,0.5-3.5,0.8-5.4
						c0.2-1.9,0.4-3.8,0.6-5.9l-0.5,0.5c0.2-3.6,1-8.1,1.4-13.3c0.2-2.6,0.5-5.2,0.8-8c0.2-2.8,0.2-5.6,0.3-8.4
						c0.2,0.8,0,3.7-0.1,5.7c0.3-3.4,0.5-6.9,0.6-10.4c0-3.5-0.3-7.1-0.5-10.6c-0.1-3.5-0.6-6.9-0.9-10.3c-0.3-3.3-0.5-6.6-0.7-9.7
						c-0.5-3-0.8-5.2-0.9-7.4c0,0.3,0.1,0.5,0.1,0.8c0-0.3-0.1-0.8-0.2-1.3c-0.1-0.7-0.1-1.4-0.1-2.1c-0.1-0.7-0.2-1.4-0.3-2.2
						c0.1,1.3,0.3,2.5,0.3,3.6c-0.3-2.3-1.1-5.9-1.7-9.3l0.2-1.6c-0.1-0.3-0.1-0.5-0.2-0.8c-0.4-3.4-0.7-2.7-0.7-0.8
						c-0.3-1.7-0.9-3.3-1.2-4.5c0.1-1.4-0.5-3.7-1.1-6c-0.3-1.2-0.6-2.4-0.8-3.6c-0.3-1.2-0.5-2.2-0.5-3.2c-0.5-1.1-1.8-5.3-3-9.5
						c-1.5-4.1-3-8.1-3.7-8.9c0.1-0.1-0.2-1.1,0.4,0.6c-0.3-0.9-0.6-1.9-0.8-2.8c-0.1-0.5-0.3-0.9-0.4-1.4c-0.2-0.5-0.3-0.9-0.5-1.3
						c-0.7-1.8-1.4-3.5-2.1-5.1l0-1.8c0,0-1-1.9-1.9-3.8c-1-1.9-2.1-3.8-2.1-3.8c-1.7-4.9-2.4-7,0.1-2.4c-1.4-2.8-2.4-4.7-3.1-6.3
						c-0.8-1.5-1.4-2.6-1.9-3.6c-1.1-2-2-3.9-4.7-8.4l0.6,0.3c-1.8-3.3-5.2-8.3-6.1-10.5c-0.9-1.9-2.8-5.1-5.2-9.1
						c-0.6-1-1.2-2.1-1.9-3.1c-0.7-1.1-1.5-2.2-2.2-3.3c-1.6-2.3-3.2-4.7-4.9-7.2c-7.2-9.8-15.9-20.4-23.3-28.5c1,2-0.6,0-2.7-2.4
						c-2.1-2.3-4.7-5.1-5.3-5.1c-0.7-1.1-2.8-3.3-0.1-1c-1-1-2-1.9-2.8-2.7c-0.9-0.8-1.8-1.6-2.6-2.3c-1.6-1.5-3.1-2.8-4.5-4.1
						c-1.4-1.2-2.7-2.5-4.1-3.5c-1.4-1.1-2.9-2.1-4.5-3.2c-0.8-1,2.1,1.2,1.3,0.3c-0.7-0.5-2.9-2-3.7-2.9c-0.8-0.8,1.4,0.8,2.9,1.8
						c-2.2-1.8-4-3.1-5.4-4.1c-1.5-0.9-2.5-1.5-3.4-1.9c-1.7-0.8-2.3-0.8-2.9-0.7c-2.2-1.8-3.9-3.2-5.5-4.3c-1.7-1-3.2-1.9-5.1-2.8
						c-1.5-1.3-4.2-3.3,1.8,0.4c-0.8-0.5-2.5-1.7-4.5-3c-1-0.7-2.1-1.4-3.3-2.2c-1.2-0.7-2.4-1.4-3.6-2.1c-4.8-2.8-9.3-5.4-9.7-5.1
						c-1-0.7-4.9-2.6-5.9-3c-2-1-3.5-1.8-4.8-2.5c-1.3-0.7-2.4-1.1-3.5-1.6c-2.2-1-4.3-1.9-8.3-3.7l2.2,1.1
						c-3.4-0.8-6.7-2.7-13.3-5.1l0.2,0c-3.7-1.7-6-2.4-7.6-2.9c-1.6-0.5-2.4-0.8-3.2-1c-0.8-0.2-1.6-0.5-3.2-1
						c-0.8-0.3-1.7-0.6-2.9-1c-1.2-0.4-2.8-0.9-4.7-1.5l0.7,0.7c-0.9,0.3-4.2-0.8-8.4-2.2c-4.3-1.3-9.6-2.7-14.1-3.5
						c0,0,0.2,0,0.5,0.1c0.3,0.1,0.7,0.2,1.1,0.3c0.8,0.2,1.6,0.5,1.6,0.5c-2.5-0.4-5.9-1.3-9.3-2.4c-3.4-1-6.8-2.1-9.3-2.4
						c-1.1-0.2,1.8,0,3.3,0.2c-13.1-2.3-1.8,0.4-11.6-0.7c-0.9-0.3-0.3-0.4-0.3-0.6c0-0.1-0.1-0.2-0.7-0.3c-0.6-0.1-1.5-0.3-3.2-0.4
						c-1.6-0.2-6.5-0.4-12.1-0.5c-2.8,0.1-5.7,0.1-8.6,0.1c-1.4,0-2.8,0-4.1-0.1c-1.3,0-2.6,0-3.7-0.1c2,0.2,4,0.4-0.6,0.7
						c-7,0.1-19.1-0.1-25.3,1.4c-0.9,0-1.2,0-1.3,0c-1.3,0.2-3.1,0.5-5,0.8c-1.9,0.3-4,0.6-6,1c-4,0.8-7.8,1.6-9.3,2.1
						c-1.3-0.2-4,0.3-7.3,1c-3.3,0.7-7.2,1.6-10.9,2.8c-1.8,0.6-3.7,1.1-5.3,1.6c-1.7,0.5-3.2,0.9-4.5,1.4c-2.6,0.8-4.3,1.3-4.4,0.9
						c0,0-1,0.3-2.5,0.8c-1.5,0.5-3.5,1.1-5.4,1.8c-3.9,1.5-7.7,3-7.7,3l0.3-0.3c-1.2,0.5-2.4,0.9-3.4,1.3c-1,0.4-2,0.9-2.8,1.2
						c-1.7,0.8-3.2,1.5-4.4,2.1c-2.4,1.2-4.1,2.1-5.7,3.1c-2.2,1-0.7,0.1-0.5-0.1c-7,3.3-10.9,5-14.2,7.1c-1.7,1-3.3,2-5.2,3.1
						c-0.9,0.6-2,1.2-3,1.9c-1.1,0.8-2.3,1.6-3.6,2.5l-1.4,0.3c-0.7,0.5-2.3,1.5-4.4,2.7c-1.1,0.6-2.3,1.4-3.6,2.2
						c-1.3,0.8-2.7,1.8-4.2,2.7c-1.5,1-3,2-4.6,3c-1.5,1.1-3.1,2.3-4.7,3.5c-1.6,1.2-3.2,2.4-4.7,3.6c-1.6,1.2-3,2.6-4.4,3.8
						c0.1-0.1,0.3-0.4,1.1-1.2c-6.4,5.6-14.2,12.2-20.6,18.4c-1.6,1.6-3.1,3.1-4.5,4.5c-0.7,0.7-1.4,1.4-2,2.1
						c-0.6,0.7-1.2,1.4-1.7,2c-2.2,2.6-3.8,4.7-4.5,6.2c0,0-0.4,0.5-1.1,1.4c-0.7,0.8-1.5,1.9-2.3,3.1c-1.7,2.3-3.3,4.5-3.3,4.5
						c9.2-11.2-0.7,2.2,3.2-2.3c-1.7,2.3-4.1,5-5.6,6.6c-0.7,0.8-1.1,1.3-1.2,1.2c0-0.1,0.3-0.8,1.4-2.1l0.8-0.8
						c0.2-0.6-0.4-0.1-1.4,1.1c-1,1.2-2.4,3.1-3.8,5c-1.4,1.9-2.9,3.9-4,5.4c-1.1,1.5-1.8,2.5-1.9,2.3c-1.9,3-3.9,6-5.8,9
						c-1.9,3-3.6,6.1-5.4,9.1c-0.9,1.5-1.8,3-2.6,4.6c-0.8,1.6-1.6,3.1-2.4,4.7c-0.8,1.6-1.6,3.1-2.4,4.6c-0.4,0.8-0.8,1.5-1.2,2.3
						l-1.1,2.4c-1.5,3.2-2.9,6.3-4.4,9.4c-1.3,3.2-2.6,6.4-3.9,9.6c-0.6,1.6-1.3,3.2-1.9,4.8c-0.5,1.6-1.1,3.2-1.6,4.8
						c-0.5,1.6-1.1,3.2-1.6,4.8l-0.8,2.4c-0.3,0.8-0.5,1.6-0.7,2.4c0,0,0.4-0.7,0.8-1.4c0.2-0.3,0.4-0.7,0.6-0.9
						c0.2-0.3,0.3-0.4,0.3-0.4s0,0.1-0.1,0.4c-0.1,0.2-0.2,0.6-0.3,1c-0.2,0.8-0.6,2-0.9,3.1c-0.6,2.2-1.3,4.5-1.3,4.5
						c-0.8,2.3-1.4,3,0.4-3.4c-0.7,1.6-1.3,4.4-1.8,6.7c-0.3,1.2-0.4,2.2-0.5,3.1c-0.1,0.8-0.1,1.3-0.1,1.4
						c-3.2,12.7,0.3-5.2-0.6-1.3l-1.1,5.3l0.4-1.2c-0.3,2.2-0.5,3.4-0.7,5c-0.1,0.8-0.3,1.7-0.5,3c-0.2,1.2-0.4,2.7-0.8,4.7
						c-1,5-0.9,2.5-1.3,4.5c0,0-0.1,0.2-0.2,0.6c-0.1,0.5-0.2,1.2-0.4,2.4c0,0-0.2,0.7-0.3,1.8c-0.1,1.1-0.3,2.6-0.5,4
						c-0.4,2.9-0.7,5.9-0.7,5.9l1.1-4.6c-0.2,2.6-0.5,5.4-0.7,6.8c-0.1,0.7,0,1.1,0,1c0.1-0.1,0.2-0.8,0.6-2.1
						c-0.1,0.5-0.3,1.1-0.4,1.8c-0.1,0.7-0.2,1.5-0.3,2.4c-0.2,1.7-0.4,3.8-0.6,6.1c-0.5,4.5-0.5,9.9-0.7,15.2
						c-0.1,2.7,0,5.3,0.1,7.8c0.1,2.5,0.1,4.8,0.2,6.9c0.2,4.2,0.5,7.3,0.5,8.6c0.2,1.8,0.5,3.6,0.7,5.5c0.3,1.8,0.5,3.7,0.8,5.6
						c0.5,3.8,0.9,7.8,1.7,12.2c-0.3-2.2,0.2-3.6,1.4,4c-0.4-0.6-0.6-0.1-0.5,1.2c0.1,1.3,0.3,3.3,0.8,5.6c0.5,2.3,1,4.8,1.4,7.2
						c0.2,1.2,0.4,2.3,0.6,3.4c0.2,1,0.4,2,0.5,2.8c-0.4-2.8,1.1,2.5,2.5,7.4c0.7,2.5,1.5,4.7,2,5.9c0.5,1.2,0.6,1.2,0.2-0.9
						c1.9,6.1-0.4,0.5,0.9,5.3c0.7,1.8,1.3,3.7,2,5.5c0.7,1.9,1.5,3.8,2.2,5.7c0.8,1.9,1.5,4,2.3,6c0.8,2,1.7,4,2.6,6.1
						c0.9,2,1.7,4.2,2.6,6.2c1,2.1,2,4.1,3,6.2c0.5,1,1,2.1,1.5,3.1l0.8,1.6l0.8,1.5c1.1,2.1,2.3,4.1,3.5,6.2c0.3,0.2-1-2.7,1.2,0.7
						c0,0,0.3,0.6,0.6,1.4c0.2,0.4,0.4,0.9,0.7,1.5c0.3,0.5,0.5,1.1,0.8,1.6c1.1,2.2,2.3,4.5,2.3,4.5c1,1.6,1.7,2.2,2.5,3.1
						c0.4,0.5,0.8,1.1,1.4,1.9c0.6,0.8,1.2,1.9,2.1,3.4c-0.4-0.9-1.1-2.2,0.4-0.2c10,15.6,22.4,30.2,36.1,43.3
						c13.7,13.2,28.8,25,44.4,35.6c-4.1-3.1-1.2-1.2,2.1,0.9c-2.1-1.4,0.3-0.3,0-0.8c0,0,0.2,0.2,0.6,0.4c0.4,0.2,0.9,0.6,1.5,1
						c1.2,0.8,2.9,1.9,4.6,2.9c1.7,1.1,3.3,2.1,4.6,2.9c0.6,0.4,1.2,0.7,1.5,0.9c0.4,0.2,0.6,0.3,0.6,0.3c1.4,0.4,5.2,2.3,8.8,4.1
						c0.9,0.5,1.8,0.9,2.7,1.3c0.9,0.4,1.7,0.7,2.4,1.1c1.5,0.6,2.6,1,3,1.1l-4.6-1.9c3.2,1,1.2-0.3-1.3-2c-2.5-1.8-5.6-3.9-4.9-4.1
						c-1.7-0.7-3.6-1.6-5.7-2.7c-2-1.2-4.2-2.6-6.5-4.1c-1.1-0.7-2.3-1.5-3.5-2.2c-0.6-0.4-1.2-0.8-1.8-1.1
						c-0.6-0.4-1.2-0.8-1.8-1.2c-2.5-1.6-5-3.2-7.7-4.6c-2.1-1.6,2.1,1,1,0c-2.8-1.2-5.8-3.4-11.3-7.6l0.7,0.4c-1-0.7-1.9-1.4-2.8-2
						c-0.9-0.7-1.7-1.4-2.6-2c-1.6-1.3-3.2-2.6-4.7-3.8c-0.7-0.6-1.5-1.2-2.2-1.8c-0.7-0.6-1.4-1.2-2.1-1.8c-1.3-1.2-2.6-2.4-4-3.6
						c-1.3-1.2-2.6-2.4-4-3.7c-1.4-1.3-2.7-2.7-4.2-4.1c-1.4-1.5-3-3-4.6-4.6c-0.4-0.4-0.8-0.8-1.3-1.3c-0.4-0.4-0.8-0.9-1.2-1.4
						c-0.8-0.9-1.7-1.9-2.6-2.9l0.7,1.5c-3.1-3.4-3.7-4.3-5-5.9c-4.2-3.4,8.8,9.6,5,6.6c-0.9-1.3-2.7-3.4-5-6
						c-1.2-1.2-2.3-2.7-3.6-4.2c-1.2-1.5-2.5-3-3.8-4.5c-0.6-0.8-1.3-1.5-1.9-2.3c-0.6-0.8-1.2-1.5-1.7-2.3
						c-1.1-1.5-2.2-2.9-3.1-4.2c-1.9-2.6-3.2-4.6-3.6-5.6c-4-5.9,0.7,2-3.3-3.8l-0.8-1.7l-1.3-1.3c-0.6-1-1.2-1.8-1.6-2.6
						c-0.4-0.8-0.8-1.4-1-2c-0.5-1.1-0.7-1.7-0.7-1.8c0.6,1,1.8,2.7,2.4,3.7c-1.4-2.7-3.7-6.3-5.7-9.4c-1.1-1.6-1.9-3.1-2.6-4.3
						c-0.7-1.2-1.2-2.2-1.5-2.6c0,0,0.8,1.5,1.6,3c0.4,0.8,0.8,1.5,1.1,2.1c0.3,0.6,0.5,0.9,0.5,0.9c-1.3-2.1-2.5-4.3-3.7-6.5
						c-0.6-1.1-1.3-2.2-1.9-3.4c-0.3-0.6-0.6-1.1-1-1.7c-0.3-0.6-0.6-1.2-0.9-1.8c-1.2-2.4-2.3-4.7-3.5-7.1
						c-0.6-1.2-1.2-2.4-1.7-3.6l-1.6-3.7c-1.1-2.5-2.2-4.9-3.2-7.3c-1-2.5-1.9-4.9-2.8-7.3c-2-4.8-3.5-9.6-5.1-14l0.2,1.4
						c-0.6-1.7-1.1-3.1-1.5-4.4c-0.4-1.3-0.7-2.4-0.9-3.3c-0.5-1.9-0.9-3.4-1.2-4.9c-0.3-1.5-0.8-3-1.2-5.1c-0.4-2.1-1-4.8-2-8.7
						l0.2,0.5c-1-3-1.7-7.2-2.5-11.4c0.9,3.9-0.8-7.5,0.4-2.4c-0.2-1-0.4-1.8-0.5-2.6c-0.1-0.8-0.2-1.5-0.3-2.1
						c-0.2-1.3-0.4-2.3-0.5-3.1c-0.3-1.6-0.4-2.4-0.6-3c-0.2-0.6-0.3-1.1-0.5-2c-0.2-0.9-0.6-2.3-1-4.9l0.2-2.4
						c-0.3-1.7-0.5-2.7-0.7-4.2c-0.2-1.5-0.5-3.5-0.6-7.5c0.5,6.5,0.4-5.1,1,2.2c0.1-4.1,0-7.7-0.1-10.9c0-3.2,0-6,0-8.5
						c0-1.3,0-2.4,0-3.6c0-1.1,0-2.2,0.1-3.2c0.2-2.1,0.4-4,0.9-5.8c-0.2-3.8-0.6-0.3-1,3.7c-0.1,1-0.2,2-0.2,3
						c-0.1,0.9-0.1,1.8-0.1,2.5c0,1.3-0.1,1.9-0.1,0.8c-0.2,1.8-0.4,0.2-0.4-2.5c0-2.7,0.2-6.4,0.5-9c0.1-1.3,0.3-2.5,0.5-3.8
						c0.2-1.3,0.6-2.6,0.9-4.2c0.4-1.6,0.7-3.4,1.1-5.7c0.2-1.1,0.4-2.4,0.6-3.7c0.3-1.4,0.5-2.8,0.8-4.5c-0.2,1.3-0.2,1.4-0.4,2.7
						c0.6-2.4,0.9-4.8,1.2-7.4c0.2-1.3,0.4-2.6,0.6-3.9c0.3-1.3,0.7-2.7,1.1-4.2c0.1-3.5,1.8-7.7,1.2-8.9l-2.5,11.9
						c0.7-3.4,1.1-6.7,1.8-10.6c0.3-1.9,0.8-4,1.4-6.2c0.6-2.2,1.3-4.7,2.2-7.4c-0.1,0.9-0.8,4.2-1.3,6.5c0.6-1.6,1-3.1,1.4-4.7
						c0.4-1.6,0.8-3.2,1.5-4.8c0.1,0.3-0.2,1.3-0.5,2.8c-0.4,1.5-0.9,3.5-1.5,5.7c-0.6,2.2-1.3,4.5-1.8,6.8
						c-0.5,2.3-0.9,4.5-1.2,6.3c0.3-0.9,0.6-2.1,0.9-3.5c0.3-1.4,0.5-2.9,0.9-4.1c0.6-2.5,1.1-4.1,1-2.2c0.2-2.7,1.1-5.9,2.2-9.4
						c1.2-3.5,2.7-7.4,3.7-11.8l0.3,0.7c0.3-1.4,1.2-4.2,2.2-6.6l-1.1,4.6c1.1-3.5,2.5-6.7,3.9-9.9c1.3-3.2,3-6.2,4.3-9.4
						c-1.5,3.3-2.4,5.2-2.9,6.1c-0.5,1-0.6,1.1-0.6,0.9c-0.1-0.3,0.2-1.6-1.1,1.2c0.7-2.1,1.5-3.8,2.1-5.3c0.6-1.4,1.2-2.6,1.6-3.5
						c1-1.9,1.7-3.1,2.4-4.3c0.7-1.2,1.6-2.5,2.8-4.5c1.2-2.1,2.7-5,5.1-9.4c-1.3,2.4-4.9,9-3.2,5.1c0.9-1.7,1.9-3.7,3.1-5.4
						c1.1-1.7,2.1-3.3,2.8-4.2c6.6-11.6-1.4,1.5,1.1-3.5c2.7-3.7,3.2-5.7,6.2-10.8l0.4,0.2c1.1-1.6,1.9-2.8,2.5-3.8
						c0.7-1,1.2-1.7,1.5-2.2c0.7-1.1,0.9-1.5,1-1.9c0.3-0.8,0.5-1.5,4.6-6.9l-2.9,5.1c0,0,1-1.5,2-2.9c0.5-0.7,1-1.5,1.4-2
						c0.4-0.5,0.7-0.9,0.7-0.9s-0.1,0.4-0.2,0.7c-0.1,0.4-0.2,0.8-0.2,0.8c2.2-3.2,3.8-5.2,5.4-7.2c0.8-1,1.6-2,2.5-3.1
						c0.9-1.1,2-2.2,3.3-3.6c-1.4,1.1,0-1.3,4.5-6.4c3.3-3.2-1.5,2.1,5.1-4.8c-0.6,0.9-1.3,1.8-2.2,2.8c-0.5,0.5-1,1.1-1.6,1.7
						c-0.6,0.6-1.2,1.3-2,2c-0.2,0.4-1.2,1.8-1.4,2.2c3.4-3.6,8.6-9,10.9-11.5c-0.9,0.9-2.1,2.1-2.7,2.6c0,0,0.6-0.6,1.4-1.6
						c0.9-1,2-2.3,3.2-3.6c2.4-2.5,4.8-5,4.8-5c1.7-1.4,0.6-0.1-0.6,1.2c1-1,1.8-1.8,2.8-2.8c1-1,2-2.1,3.6-3.4
						c-0.5,1-0.2,1.1-4.3,5.2c0,0,0.6-0.6,1.5-1.4c0.9-0.9,2-2,3.3-3.1c2.4-2.2,4.9-4.4,4.9-4.4c0.4-0.2,1.8-1.2,2.9-2
						c1.1-0.8,2-1.3,1.4-0.7c3-2.1,6.4-5,10.1-8c1.9-1.4,3.9-2.9,5.9-4.3c2-1.4,4-2.9,6.1-4.1c0.4-0.3,1.2-0.9,2.9-2.1
						c2-1.2,3.9-2.3,5.7-3.4c1.9-1,3.9-2.1,5.9-3.1c2-1.1,4-2.2,6.1-3.3c2.2-1.1,4.4-2.3,6.7-3.6c0,0,1.4-0.5,2.9-1
						c1.4-0.5,2.9-1,2.9-1c7.7-3.5-8,2.5,4.8-3.4c4.5-2.1,5.4-2.3,5.6-2.2c0.2,0.1-0.4,0.6,1.3,0.1c2.2-1,5.3-2.5,8.9-4
						c0.5-0.2,0.9-0.4,1.4-0.6c0.5-0.2,1-0.3,1.5-0.5c1-0.3,2-0.7,3-1c2.1-0.7,4.2-1.3,6.5-1.9C202.3,28.3,200,28.9,197.3,29.9z
						 M300,15.8c-1,0-2.5,0-4-0.1c-1.4,0-2.8,0-3.6-0.2c1.2-0.3,2.2-0.3,3.4-0.3C297,15.3,298.3,15.6,300,15.8z M447.2,69.5
						c-1.3-0.8-3.2-2.2-5.2-3.9C443.6,66.7,445.4,68,447.2,69.5z M486.6,465.4c0.1-0.1,0.1-0.1,0.1-0.2
						C489.9,461.9,488.8,463.1,486.6,465.4z M480,472.3c-0.6,0.7-0.5,0.7-0.2,0.5c0.4-0.6,1.9-2.1,3.6-3.8
						C482.8,469.3,481.9,470.1,480,472.3z M14.4,241.1l0.4-1.8C14.3,243.5,14.4,242.3,14.4,241.1z"/>
					<path id="XMLID_134_" class="st1" d="M432.1,59.6c-0.4-0.4-0.5-0.5-0.6-0.7C430.8,58.6,430.7,58.7,432.1,59.6z"/>
					<path id="XMLID_133_" class="st1" d="M139.2,58.1l-0.3,0.2c-0.1,0.1-0.2,0.2-0.2,0.2L139.2,58.1z"/>
					<path id="XMLID_132_" class="st1" d="M545.1,343.2c0.5-1.9,0.8-2.9,1.1-3.6C546.1,339.4,545.8,340.3,545.1,343.2z"/>
					<path id="XMLID_131_" class="st1" d="M442.4,505.9c0,0,0.3-0.2,0.8-0.6c0.5-0.3,1.1-0.8,1.7-1.3c1.2-1,2.4-1.9,2.4-1.9
						c-2.3,1.8-3.2,2.4-4.5,3.2C442.9,505.3,443.9,504.8,442.4,505.9z"/>
					<path id="XMLID_130_" class="st1" d="M395.2,529.6c-0.8,0.4-1.7,0.8-2.5,1.2l0.3,0.1C396.5,529.3,398.8,528.1,395.2,529.6z"/>
					<path id="XMLID_129_" class="st1" d="M436.8,507.7c-0.3,0-1.2,0.5-2.5,1.4c-0.6,0.4-1.4,1-2.1,1.5c-0.8,0.5-1.7,1.1-2.6,1.7
						c0.2-0.1,0.4-0.3,0.6-0.4c-0.4,0.6,0.4,0.2,1.7-0.6C433.2,510.5,435,509.1,436.8,507.7z"/>
					<path id="XMLID_128_" class="st1" d="M428.7,512.8c-1.1,0.7-2.2,1.4-3.3,2.1C425.1,515.4,426.8,514.1,428.7,512.8z"/>
					<path id="XMLID_127_" class="st1" d="M471.6,481c-1.6,1.3-0.6,1.2-1.5,1.9c-0.7,1,1.7-1.5,3.3-3.1c0.8-0.8,1.3-1.5,1.2-1.5
						C474.4,478.3,473.6,479,471.6,481z"/>
					<polygon id="XMLID_126_" class="st1" points="433.2,508.6 434.8,508.1 436.5,506.5 					"/>
					<path id="XMLID_125_" class="st1" d="M460.1,488.7l-5.3,4.3c0.1,0-0.5,0.6-1.3,1.3C456.8,491.6,460.3,488.7,460.1,488.7z"/>
					<path id="XMLID_124_" class="st1" d="M453.6,494.2c-1.7,1.4-3.4,2.6-4.3,3.4C450.2,496.9,452.2,495.4,453.6,494.2z"/>
					<path id="XMLID_123_" class="st1" d="M440.8,503.2c0,0,0.4-0.3,0.9-0.5c0.4-0.3,0.8-0.5,0.8-0.5l3.8-2.9c0,0-1.4,1-2.7,2
						C442.2,502.3,440.8,503.2,440.8,503.2z"/>
					<path id="XMLID_122_" class="st1" d="M508.4,434.4l3.9-6.3c0.3-0.7-0.9,0.9-2.4,3.3C509.1,432.9,507.6,435.2,508.4,434.4z"/>
					<path id="XMLID_121_" class="st1" d="M494.1,451.6c1.3-1.5,1.5-1.5,2.3-2.3l-0.4-0.6L494.1,451.6z"/>
					<path id="XMLID_120_" class="st1" d="M506.7,434.2c0.3-0.7,5.4-9.2,0.4-1.4c-0.1,0.4-1.2,2.1-1.7,3.1c-0.3,0.5-0.4,0.7-0.3,0.6
						c0.1-0.1,0.3-0.3,0.5-0.6C505.9,435.4,506.2,434.9,506.7,434.2z"/>
					<polygon id="XMLID_119_" class="st1" points="549.1,332.4 548.8,334.2 549.9,334.1 					"/>
					<path id="XMLID_118_" class="st1" d="M546.8,235.3c1.2,8.6,1,1.9,2,9.7c0.2,1,0.2-0.6-0.1-2.2c-0.2-1.6-0.4-3.2-0.2-2.1
						C547.3,235.6,547,232.8,546.8,235.3z"/>
					<path id="XMLID_117_" class="st1" d="M548.5,240.7c0.2,0.8,0.4,1.7,0.6,2.6C548.8,241.8,548.6,241.1,548.5,240.7z"/>
					<path id="XMLID_116_" class="st1" d="M163.5,528.5c0,0,0.3,0.2,0.8,0.4c0.5,0.3,1.1,0.6,1.7,0.9c1.3,0.6,2.5,1.3,2.5,1.3
						l-3.2-1.8c0,0-0.5-0.2-0.9-0.4C163.9,528.7,163.5,528.5,163.5,528.5z"/>
					<path id="XMLID_115_" class="st1" d="M173.7,532.3l1,1.1l3.3,0.9C176.8,533.8,174.5,532.9,173.7,532.3z"/>
					<path id="XMLID_114_" class="st1" d="M315.3,18.5l0.4-0.1c-0.8-0.3-2.1-0.4-4.7-0.8L315.3,18.5z"/>
					<polygon id="XMLID_113_" class="st1" points="240.1,19.7 241.4,19.4 238.9,19.3 					"/>
					<path id="XMLID_112_" class="st1" d="M179.7,37.9c1.2-0.5,2.4-1.1,3.8-1.6c1.3-0.5,2.6-1,3.8-1.5
						C182,36.8,178.8,37.6,179.7,37.9z"/>
				</g>
			</g>
		</g>
	</g>
</g>
</svg>
