<?xml version="1.0" encoding="UTF-8" standalone="no"?>
<!-- Generator: Adobe Illustrator 22.0.0, SVG Export Plug-In . SVG Version: 6.00 Build 0)  -->

<svg
   xmlns:dc="http://purl.org/dc/elements/1.1/"
   xmlns:cc="http://creativecommons.org/ns#"
   xmlns:rdf="http://www.w3.org/1999/02/22-rdf-syntax-ns#"
   xmlns:svg="http://www.w3.org/2000/svg"
   xmlns="http://www.w3.org/2000/svg"
   xmlns:sodipodi="http://sodipodi.sourceforge.net/DTD/sodipodi-0.dtd"
   xmlns:inkscape="http://www.inkscape.org/namespaces/inkscape"
   version="1.1"
   x="0px"
   y="0px"
   viewBox="0 0 860 520"
   xml:space="preserve"
   id="svg37"
   sodipodi:docname="whitfoxvecto.svg"
   width="860"
   height="520"
   inkscape:version="0.92.3 (2405546, 2018-03-11)"><metadata
   id="metadata43"><rdf:RDF><cc:Work
       rdf:about=""><dc:format>image/svg+xml</dc:format><dc:type
         rdf:resource="http://purl.org/dc/dcmitype/StillImage" /><dc:title></dc:title></cc:Work></rdf:RDF></metadata><defs
   id="defs41" /><sodipodi:namedview
   pagecolor="#ffffff"
   bordercolor="#666666"
   borderopacity="1"
   objecttolerance="10"
   gridtolerance="10"
   guidetolerance="10"
   inkscape:pageopacity="0"
   inkscape:pageshadow="2"
   inkscape:window-width="1600"
   inkscape:window-height="833"
   id="namedview39"
   showgrid="false"
   inkscape:zoom="0.66875"
   inkscape:cx="517.81914"
   inkscape:cy="434.64567"
   inkscape:window-x="0"
   inkscape:window-y="0"
   inkscape:window-maximized="1"
   inkscape:current-layer="svg37" />
<style
   type="text/css"
   id="style2">
	.st0{fill:#FFFFFF;}
	.st1{fill:#FFFFFF;stroke:#000000;stroke-width:4;stroke-miterlimit:10;}
	.st2{fill:none;stroke:#000000;stroke-width:4;stroke-miterlimit:10;}
	.st3{display:none;}
	.st4{display:inline;fill:#FFFFFF;}
	.st5{font-family:'CambriaMath';}
	.st6{font-size:200px;}
</style>
<g
   id="Calque_1"
   transform="translate(-530.33645,-94.84962)">
	<g
   id="g8">
		<path
   class="st0"
   d="m 721,356 c 0,32.3 6.7,64.7 19.6,94.2 12.8,29.6 31.8,56.3 55.2,78.1 11.7,10.9 24.4,20.5 38,28.8 13.5,8.3 27.9,15 42.6,20.3 14.8,5.3 30,9 45.4,11.2 15.4,2.2 30.9,2.8 46.3,2 30.8,-1.7 60.7,-9.5 87.9,-22.5 27.2,-12.9 51.5,-31 71.6,-52.7 20.1,-21.7 35.9,-47 46.5,-74.1 10.7,-27.2 16,-56.2 16.1,-85.3 0,-29.1 -5.5,-58.1 -16.1,-85.3 -10.6,-27.1 -26.5,-52.4 -46.6,-74.1 -20.1,-21.6 -44.4,-39.7 -71.5,-52.6 -27.1,-13 -57.1,-20.7 -87.8,-22.5 -15.4,-0.8 -30.9,-0.2 -46.3,2 -15.4,2.2 -30.6,5.9 -45.4,11.2 -14.8,5.3 -29.1,12 -42.6,20.3 -3.4,2.1 -6.7,4.3 -10,6.4 -3.3,2.3 -6.4,4.6 -9.7,7 -3.1,2.4 -6.2,4.9 -9.3,7.4 l -9,7.9 c -23.4,21.7 -42.3,48.5 -55.2,78 -13,29.6 -19.7,62 -19.7,94.3 z m 0,0 c 0,-32.3 6.1,-64.7 18,-94.9 11.9,-30.2 29.6,-58.2 51.9,-82.2 22.4,-24 49.5,-43.9 79.7,-58.1 30.2,-14.2 63.5,-22.6 97.4,-24.4 17,-0.8 34.1,-0.1 51.1,2.4 17,2.5 33.8,6.7 50.1,12.7 16.3,5.9 32.1,13.5 47,22.6 14.9,9.1 28.9,19.8 41.7,31.9 25.7,24.1 46.5,53.6 60.6,86.2 14.1,32.6 21.4,68.3 21.4,103.8 0,35.5 -7.3,71.2 -21.5,103.8 -14.1,32.6 -35,62.1 -60.6,86.1 l -9.8,8.8 c -3.4,2.8 -6.8,5.5 -10.3,8.2 -3.5,2.6 -7.1,5.2 -10.6,7.7 -3.7,2.4 -7.3,4.8 -11,7.1 -14.9,9.2 -30.7,16.7 -46.9,22.6 -16.3,5.9 -33.1,10.1 -50.1,12.6 -17,2.5 -34.1,3.3 -51.1,2.4 C 934.1,613.6 900.8,605.2 870.6,591 840.4,576.9 813.4,557 791,533 768.6,509 750.9,481 739,450.8 727.1,420.7 721,388.3 721,356 Z"
   id="path6"
   inkscape:connector-curvature="0"
   style="fill:#ffffff" />
	</g>
	<g
   id="g16">
		<g
   id="g14">
			<path
   class="st0"
   d="m 667.5,465.6 c -0.9,0 -1.9,-0.1 -3,-0.4 -3.9,-1 -7.5,-2.7 -10.6,-4.2 -1,-0.5 -1.7,-1.2 -2.2,-2 -0.1,0 -0.3,0 -0.4,0 -1,0 -1.9,-0.4 -2.5,-0.7 -3,-1.5 -5.8,-3.1 -8.4,-4.7 -1,-0.6 -1.5,-1.5 -1.8,-2.1 -0.1,-0.1 -0.1,-0.2 -0.2,-0.3 -0.1,0 -0.3,0 -0.4,0 -0.7,0 -1.7,-0.1 -2.7,-0.7 l -0.5,-0.3 c -2.6,-1.6 -5.4,-3.3 -8,-5.1 -0.5,-0.3 -1.4,-1 -1.8,-2.2 0,0 0,0 0,0 h -0.2 c -1.2,0 -2.1,-0.5 -2.8,-1 l -1.1,-0.7 c -2.1,-1.4 -4.3,-2.8 -6.4,-4.4 -0.8,-0.6 -1.6,-1.4 -2,-2.5 -1.1,0 -2,-0.3 -2.8,-0.9 -0.6,-0.4 -1.2,-0.8 -1.9,-1.3 -2.1,-1.4 -4.3,-2.8 -5.9,-5.3 -0.1,-0.2 -0.2,-0.3 -0.2,-0.3 -1.9,-0.2 -3.3,-1.3 -4.4,-2.2 -0.6,-0.5 -1.2,-0.9 -1.8,-1.4 l -0.6,-0.4 c -1.2,-0.9 -2.1,-2 -2.5,-3.3 -1.4,-0.3 -2.7,-0.9 -3.8,-1.9 -1.9,-1.7 -4.4,-3.9 -6.7,-6.3 -0.6,-0.6 -1.8,-1.9 -2,-3.7 -1.2,-0.5 -2.1,-1.3 -2.9,-2.6 -1.3,-2.2 -2.3,-4.5 -2.8,-7 -2.1,-0.6 -3.8,-1.6 -5.4,-2.6 l -0.5,-0.3 c -3.1,-1.8 -6.3,-3.7 -9.8,-5.9 -0.1,-0.1 -0.3,-0.2 -0.4,-0.2 -0.6,-0.3 -1.5,-0.8 -2.1,-1.8 -2.9,-0.9 -5.2,-2.8 -7.2,-4.4 l -0.3,-0.3 c -0.6,-0.5 -1.3,-0.9 -2,-1.3 -1.1,-0.6 -2.4,-1.4 -3.5,-2.6 -0.3,-0.4 -0.8,-0.8 -1.3,-1.2 -0.5,-0.4 -1,-0.8 -1.4,-1.3 -2.6,-2.6 -2.3,-5.2 -1.5,-6.9 1.1,-2.5 3.1,-4 5.9,-4.2 0.6,-0.1 1.2,-0.1 1.9,-0.1 2.4,0 4.9,0.4 7.6,1.1 1.2,0.3 2.4,0.6 3.7,0.8 1.7,0.3 3.5,0.6 5.2,1.2 0.2,0.1 0.4,0.1 0.6,0.2 -0.1,-0.2 -0.2,-0.5 -0.2,-0.7 -1.8,-1.5 -2.6,-3.4 -3.2,-5.2 l -0.1,-0.3 c -0.7,-1.7 -0.4,-3.5 0.6,-5 1.1,-1.6 2.8,-2.5 4.7,-2.5 0.3,0 0.6,0 0.9,0.1 1.3,0.2 2.5,0.7 3.6,1.2 -1.6,-4 -2.7,-8.1 -3.7,-11.8 -0.5,-1.6 -0.6,-3.1 -0.5,-4.6 0.1,-1.3 0.7,-2.4 1.8,-3 1.2,-0.7 2.5,-1.1 3.8,-1.1 1.6,0 3.1,0.6 4.3,1.7 0.3,0.3 0.7,0.6 1,0.9 1.2,1 2.5,2.1 3.4,3.8 0.1,0.1 0.2,0.2 0.4,0.2 0.4,0.3 0.9,0.6 1.4,1.2 1,1.3 2.1,2.5 3.2,3.7 0.5,0.6 1,1.2 1.5,1.8 l 0.1,0.2 c 0.3,0.4 0.8,0.9 1.1,1.8 1.4,0.9 2.3,2.2 3.1,3.3 0.4,0.5 0.7,1 1.1,1.5 0.7,0.8 1.4,1.7 2.1,2.5 0.4,0.5 0.8,1 1.2,1.5 0.4,0.4 1,1.2 1.1,2.2 1.7,1.1 2.6,2.7 3.4,4.1 0.3,0.5 0.6,1 0.9,1.4 0.2,0.4 0.4,0.7 0.5,1 0,0.1 0.1,0.2 0.1,0.3 0.4,0.3 0.8,0.9 0.9,1.5 3.2,0.5 6.1,1.6 8.7,3.3 4.8,3.2 9.1,6.7 12.9,10.6 0.9,0.9 1.5,1.9 1.7,3 1.5,0.3 2.4,1.3 2.8,1.7 0.6,0.7 1.3,1.3 1.9,2 2.5,2.6 5.2,5.2 7.1,8.5 0.1,0.1 0.2,0.2 0.2,0.2 1.9,1.1 3.5,2.8 5,5.2 0.7,1.2 1.7,2.1 2.8,3.2 1,1 2.1,2.1 3,3.3 l 0.2,0.3 c 0.4,0.6 0.9,1.3 1.2,2.1 0.2,0.5 0.5,0.8 0.9,1.1 1.8,1.2 3.1,2.8 4.3,4.4 0.4,0.5 0.8,1.1 1.2,1.6 0.8,1 1.6,2 2.4,3 0.4,0.6 0.9,1.2 1.4,1.7 1.1,1.4 1.7,2.6 2,4 0.1,0.3 0.1,0.3 0.2,0.3 1.3,0.4 2.1,1.4 2.6,2 0.9,1.4 1.9,2.7 2.8,4.1 l 2,2.8 c 0.8,1.1 1.2,2.2 1.2,3.4 0,0 0,0.1 0,0.1 1.1,0.5 1.7,1.3 2.2,2 2.1,3.1 3.4,5.7 4.2,8.4 0.8,2.8 0.4,5.5 -1.1,7.9 -0.9,1.4 -2,2.7 -3.5,3.9 -1.7,1.3 -3.3,1.9 -5,1.9 z"
   id="path10"
   inkscape:connector-curvature="0"
   style="fill:#ffffff" />
			<path
   d="m 571,337.3 c 1.1,0 2.1,0.4 2.9,1.2 1.4,1.3 3.1,2.3 4,4.2 0.4,0.8 1.4,1 2,1.7 1.5,1.9 3.2,3.7 4.8,5.5 0.4,0.4 0.9,0.8 0.8,1.5 0,0.2 0.1,0.4 0.3,0.5 2.1,1 2.9,3.1 4.4,4.7 1.1,1.2 2.1,2.6 3.2,3.9 0.4,0.5 0.8,0.9 0.7,1.6 0,0.3 0.1,0.6 0.3,0.7 2.2,1.1 3,3.4 4.3,5.3 0.4,0.5 0.4,1.2 1,1.6 0.1,0.1 0.3,0.4 0.2,0.5 -0.5,1.5 0.6,1.3 1.4,1.4 2.9,0.4 5.7,1.4 8.1,3 4.5,3 8.8,6.4 12.6,10.3 0.7,0.7 1.2,1.4 1.3,2.4 0.1,0.6 0.3,1.1 1,1.1 1,0 1.6,0.6 2.3,1.2 3.1,3.2 6.4,6.2 8.8,10.1 0.2,0.3 0.5,0.7 0.8,0.9 1.9,1.1 3.2,2.8 4.3,4.6 1.6,2.5 4.2,4.2 5.9,6.6 0.5,0.7 1,1.3 1.2,2 0.3,0.9 0.9,1.6 1.7,2.1 2.2,1.4 3.4,3.7 5,5.6 1.3,1.5 2.5,3.1 3.7,4.7 0.8,1 1.4,2 1.6,3.2 0.2,0.9 0.7,1.5 1.5,1.8 0.7,0.2 1.1,0.7 1.5,1.3 1.6,2.3 3.2,4.6 4.8,6.9 0.5,0.7 0.8,1.5 0.9,2.3 0,0.8 0.4,1.4 1.1,1.8 0.6,0.3 1,0.8 1.4,1.3 1.6,2.4 3.1,5 3.9,7.8 0.7,2.2 0.4,4.4 -0.9,6.3 -0.8,1.3 -1.9,2.5 -3.1,3.5 -1.1,0.9 -2.2,1.2 -3.4,1.2 -0.8,0 -1.6,-0.2 -2.5,-0.4 -3.6,-0.9 -6.9,-2.5 -10.2,-4.1 -0.7,-0.3 -1.3,-0.9 -1.6,-1.6 -0.2,-0.5 -0.4,-0.8 -0.8,-0.8 -0.1,0 -0.3,0 -0.4,0.1 -0.2,0.1 -0.5,0.1 -0.7,0.1 -0.6,0 -1.1,-0.2 -1.6,-0.5 -2.8,-1.4 -5.5,-3 -8.3,-4.6 -1,-0.6 -1.2,-2.1 -2.1,-2.5 -0.9,-0.4 -2.1,0 -3.1,-0.6 -2.8,-1.7 -5.7,-3.4 -8.4,-5.3 -0.4,-0.3 -0.9,-0.6 -1,-1.1 -0.3,-1 -0.9,-1.4 -1.9,-1.4 -0.1,0 -0.1,0 -0.2,0 0,0 -0.1,0 -0.1,0 -0.6,0 -1.2,-0.3 -1.7,-0.6 -2.5,-1.6 -5,-3.2 -7.4,-5 -0.7,-0.5 -1.4,-1.1 -1.5,-2.1 -0.1,-0.6 -0.5,-0.9 -1,-0.9 -0.1,0 -0.1,0 -0.2,0 -0.1,0 -0.3,0 -0.4,0 -0.6,0 -1.3,-0.1 -1.8,-0.5 -2.5,-1.8 -5.5,-3.2 -7.2,-6 -0.4,-0.6 -0.9,-1.1 -1.6,-1.2 -1.4,-0.2 -2.4,-1 -3.5,-1.8 -0.8,-0.7 -1.7,-1.3 -2.5,-1.9 -0.9,-0.6 -1.5,-1.4 -1.8,-2.5 -0.2,-0.7 -0.6,-1 -1.3,-1.1 -1.1,-0.2 -2.1,-0.7 -3,-1.4 -2.3,-2 -4.5,-4 -6.6,-6.2 -0.9,-0.9 -1.6,-1.9 -1.5,-3.3 0.1,-0.6 -0.3,-0.7 -0.7,-0.8 -1.1,-0.2 -1.9,-1 -2.5,-1.9 -1.2,-2 -2.1,-4.2 -2.6,-6.5 -0.2,-0.7 -0.4,-1.1 -1.2,-1.3 -2.1,-0.5 -3.9,-1.7 -5.7,-2.7 -3.3,-1.9 -6.5,-3.9 -9.7,-5.9 -0.8,-0.5 -1.7,-0.8 -2.1,-1.7 -0.1,-0.2 -0.3,-0.3 -0.5,-0.3 -2.9,-0.7 -5.1,-2.7 -7.3,-4.5 -1.7,-1.4 -3.8,-2 -5.3,-3.7 -0.8,-0.9 -1.9,-1.6 -2.7,-2.5 -1.3,-1.3 -1.9,-2.8 -1.1,-4.7 0.8,-1.9 2.2,-2.8 4.2,-3 0.6,0 1.1,-0.1 1.7,-0.1 2.4,0 4.8,0.4 7.1,1.1 2.9,0.8 6,1 8.8,2 1.2,0.4 2.4,0.4 3.5,1.2 0.2,0.2 0.5,0.2 0.8,0.2 0.4,0 0.8,-0.1 1.2,-0.1 0.1,0 0.2,0 0.2,0 -0.7,-1 -1.3,-1.9 -1.9,-2.8 -0.4,-0.5 -0.7,-0.9 -0.8,-1.6 0,-0.3 -0.1,-0.5 -0.3,-0.7 -1.7,-1.2 -2.4,-3.1 -3.1,-4.9 -0.9,-2.3 1,-4.8 3.4,-4.8 0.2,0 0.4,0 0.6,0.1 2,0.4 3.8,1.4 5.6,2.4 0.5,0.3 0.4,1.2 1.3,1.2 0.1,0 0.1,0 0.2,0 0.7,-0.1 0.9,-0.2 0.6,-0.8 -2.5,-5 -4,-10.4 -5.5,-15.8 -0.4,-1.3 -0.5,-2.6 -0.5,-3.9 0,-0.7 0.3,-1.1 0.9,-1.5 1.1,-0.5 2.1,-0.8 3,-0.8 m 0,-4 c -1.7,0 -3.4,0.5 -4.9,1.4 -1.6,1 -2.6,2.7 -2.7,4.6 -0.1,1.7 0.1,3.4 0.6,5.2 0.7,2.5 1.5,5.3 2.4,8 -0.4,-0.1 -0.8,-0.1 -1.2,-0.1 -2.5,0 -4.9,1.3 -6.3,3.4 -1.4,2.1 -1.7,4.6 -0.8,6.9 l 0.1,0.3 c 0.2,0.6 0.5,1.3 0.8,2 -0.3,-0.1 -0.7,-0.1 -1,-0.2 -1.3,-0.2 -2.4,-0.4 -3.5,-0.8 -2.9,-0.8 -5.6,-1.2 -8.2,-1.2 -0.7,0 -1.4,0 -2,0.1 -3.5,0.3 -6.2,2.2 -7.6,5.4 -0.8,1.8 -1.6,5.5 1.9,9.1 0.5,0.5 1.1,1 1.6,1.4 0.4,0.3 0.8,0.7 1.1,1 1.3,1.4 2.8,2.3 4,3 0.7,0.4 1.3,0.7 1.7,1.1 l 0.3,0.3 c 2,1.7 4.3,3.6 7.2,4.6 0.8,0.9 1.7,1.5 2.3,1.8 0.1,0.1 0.2,0.1 0.3,0.2 3.6,2.2 6.8,4.2 9.8,5.9 l 0.5,0.3 c 1.4,0.8 3,1.7 4.8,2.4 0.6,2.2 1.5,4.4 2.8,6.4 0.8,1.3 1.7,2.3 2.8,2.9 0.5,1.9 1.8,3.2 2.3,3.7 2.4,2.5 4.9,4.7 6.8,6.4 1.1,1 2.3,1.7 3.7,2.1 0.6,1.2 1.5,2.3 2.7,3.2 l 0.6,0.4 c 0.6,0.5 1.2,0.9 1.8,1.3 1,0.8 2.5,2 4.5,2.5 1.8,2.5 4.1,4 6.2,5.4 0.6,0.4 1.2,0.8 1.8,1.2 0.8,0.6 1.7,0.9 2.7,1.1 0.7,1.2 1.7,1.9 2.1,2.2 2.1,1.6 4.4,3.1 6.5,4.5 l 1.1,0.7 c 0.7,0.4 1.6,1 2.8,1.2 0.7,1 1.5,1.6 2,1.9 2.7,1.9 5.4,3.5 8.1,5.2 l 0.5,0.3 c 1.1,0.7 2.2,0.9 3,0.9 0.4,0.7 1.1,1.6 2.2,2.2 2.7,1.6 5.5,3.3 8.5,4.8 0.7,0.3 1.6,0.7 2.8,0.9 0.6,0.7 1.4,1.3 2.3,1.8 3.1,1.6 6.8,3.3 10.9,4.4 1.3,0.3 2.4,0.5 3.5,0.5 2.3,0 4.3,-0.7 6,-2.2 1.6,-1.4 2.9,-2.8 3.9,-4.4 1.9,-2.9 2.3,-6.2 1.4,-9.6 -0.8,-2.9 -2.2,-5.6 -4.4,-8.9 -0.4,-0.6 -1,-1.4 -1.9,-2.1 -0.2,-1.2 -0.7,-2.3 -1.5,-3.4 -0.7,-0.9 -1.3,-1.9 -2,-2.8 -0.9,-1.4 -1.9,-2.7 -2.8,-4.1 -0.3,-0.4 -1.1,-1.6 -2.6,-2.4 -0.4,-1.4 -1.1,-2.7 -2.2,-4.1 -0.5,-0.6 -0.9,-1.1 -1.3,-1.7 -0.8,-1 -1.6,-2 -2.4,-3.1 -0.4,-0.5 -0.8,-1 -1.2,-1.5 -1.2,-1.6 -2.6,-3.5 -4.7,-4.9 -0.1,-0.1 -0.1,-0.1 -0.1,-0.2 -0.4,-1.1 -1,-2 -1.5,-2.6 -0.1,-0.1 -0.2,-0.2 -0.2,-0.3 -1,-1.4 -2.2,-2.6 -3.2,-3.6 -1,-1 -1.9,-1.9 -2.5,-2.8 -1.6,-2.5 -3.3,-4.3 -5.3,-5.6 -2.1,-3.4 -4.7,-6.1 -7.3,-8.6 -0.6,-0.6 -1.3,-1.3 -1.9,-1.9 -0.4,-0.4 -1.3,-1.4 -2.7,-1.9 -0.4,-1 -1,-1.9 -1.9,-2.8 -3.9,-4 -8.3,-7.6 -13.2,-10.9 -2.5,-1.7 -5.3,-2.8 -8.4,-3.4 -0.2,-0.3 -0.4,-0.6 -0.6,-0.8 -0.1,-0.3 -0.3,-0.8 -0.7,-1.2 -0.3,-0.4 -0.5,-0.8 -0.8,-1.3 -0.8,-1.3 -1.7,-2.9 -3.4,-4.2 -0.4,-1.1 -1,-1.9 -1.4,-2.3 -0.4,-0.5 -0.8,-0.9 -1.1,-1.4 -0.7,-0.9 -1.4,-1.7 -2.2,-2.6 -0.3,-0.3 -0.6,-0.8 -1,-1.3 -0.8,-1.1 -1.7,-2.3 -3.1,-3.4 -0.4,-0.9 -0.9,-1.5 -1.3,-1.9 l -0.1,-0.1 c -0.5,-0.6 -1,-1.2 -1.5,-1.8 -1.1,-1.3 -2.2,-2.5 -3.2,-3.7 -0.6,-0.8 -1.3,-1.2 -1.8,-1.5 -1,-1.8 -2.4,-3 -3.6,-4 -0.3,-0.3 -0.7,-0.6 -1,-0.8 -1.4,-1.3 -3.4,-2.1 -5.5,-2.1 z"
   id="path12"
   inkscape:connector-curvature="0" />
		</g>
	</g>
	<path
   class="st1"
   d="m 604.2,408.2 c 0.7,-0.7 -3.4,-3.5 -5.2,-5.3 -1.2,-1.2 -0.9,-1.8 0.7,-2.2 10.8,-2.5 21.7,-3.9 32.8,-4.1 2.3,0 4.5,0.2 6.7,0.8 5.1,1.3 7.2,4.3 6.1,9.6 -0.7,3.7 -1.6,7.5 -2.7,11.1 -2.1,7 -4,14 -6.7,20.8 -1.1,2.9 -1.8,3.3 -4.9,3.2 -2.6,-0.1 -5.1,-0.9 -7.7,-1.5 -0.8,-0.2 -1.8,-0.4 -1.6,0.9 0.7,3.9 0.5,8.1 2.6,11.7 0.7,1.3 1.6,2.5 2.7,3.5 1,0.8 1.2,1.8 0.8,3 -0.9,2.7 -0.7,2.9 2,4 0.9,0.3 1.7,0.7 2.6,1 1.6,0.1 3.1,0.2 4.7,0.3 9.9,-1.4 15.2,-8.7 20,-16.3 4.3,-6.8 8.2,-14 13.9,-19.7 8.1,-8.2 18.2,-12.3 29.6,-12.9 3.9,-0.2 7.5,1.4 10.3,4.2 1.1,1.1 2.2,2.2 3.3,3.3 0.8,0.8 1.6,0.8 1.8,-0.4 0.4,-1.6 0.8,-3.2 1.2,-4.7 1.5,8.6 3.7,16.6 6.5,21.7 0.8,1.4 3.8,6.3 2.2,11.2 -0.9,2.6 -2.9,4.1 -3.4,4.8 -18.7,28.2 -27.8,38.1 -59.2,55.9 -2.9,1.6 -6.6,7.5 -7.8,10.5 -6.1,14.7 -15.7,46.3 -7.1,56.6 0.2,0.2 2.4,4 3.8,3.3 0.9,-0.5 3.9,-6.6 4.5,-6.7 0.6,-0.1 2.8,7.3 3.5,7.3 0.7,-0.1 4.2,-6.7 4.5,-6.7 0.3,0 3.8,8.2 4.4,8.3 0.4,0.1 1,-1.6 1.1,-1.9 4,-11.1 6,-16.6 6.4,-19.6 2.6,-17.3 54.1,-50.7 80.1,-68.4 2.2,-1.5 6.8,-4.7 8.8,-10.4 1.1,-3 0.7,-4.6 0,-14 -0.4,-6.2 -0.9,-13.7 -0.4,-22.1 0,0 0.5,-8.9 1.6,-8.9 0.6,0 0.4,4.2 3.5,7.3 0.7,0.7 1.3,1.3 1.9,1.1 1.7,-0.3 2.2,-5.3 2.8,-10.8 0.2,-2.2 0.3,-3.3 0.4,-5 0,-1 0.3,-2.3 0.9,-4 12.3,1.7 26.4,1.4 42.4,1.1 11.8,-0.2 17.8,-0.4 26.2,-2.1 39.9,-8.4 48,-35.9 83.6,-47.1 11.2,-3.5 26.8,-8 44.3,-2.8 17.5,5.2 21.8,15.7 56.6,36.1 14.4,8.5 14.6,7.2 19.2,11.4 18.3,16.3 13.2,33.4 26.5,50 15.4,19.2 29.9,5.9 47.4,23.5 22.2,22.3 15.3,60.2 37,84.9 2.6,2.9 9.5,10.1 11.4,8.8 1.7,-1.1 -1.6,-8.4 -0.4,-9 1,-0.6 5.3,12 10.2,11.8 0.3,0 1.3,-0.1 2.1,-0.9 1.9,-2 -0.5,-6.2 0.5,-7 1.7,-1.3 10,9.3 12.5,7.9 2.3,-1.3 -1,-12.7 -5.4,-22.4 -3.7,-8.1 -7,-12.5 -8.9,-15.7 -15.3,-25.4 4.4,-61.9 -9.2,-80.9 -1.8,-2.5 -3.7,-4.3 -3.7,-4.3 -7.5,-7 -14.4,-5.1 -24.4,-9.8 -8.2,-3.9 -15.2,-10.6 -14.1,-13 1.2,-2.6 12,-0.6 12.1,-1.1 0,-0.5 -6.8,-0.4 -11.7,-4.9 -2.3,-2.1 -4.3,-5.3 -3.6,-6.3 1.1,-1.4 8.9,0.5 13.7,5 0.5,0.5 1.4,1.4 1.9,1.1 1.5,-0.7 -1.8,-9.4 -0.3,-10 0.6,-0.3 1.8,1 1.9,1.1 8.9,9.7 43.5,9.1 43.5,9.1 46.8,-0.8 76,-10.6 76,-10.6 25.4,-8.5 94.4,-31.7 117,-92.9 6.4,-17.4 6.5,-31 6.7,-51.7 0.5,-60.7 -24.3,-102.3 -54.2,-152.3 -7.5,-12.6 -14.8,-17.1 -14.8,-17.1 0,0 21.4,106.2 -27.9,179.5 -17.3,25.7 -39.8,40 -51.5,47.4 -18.5,11.7 -57.6,36.6 -98.1,26 -10.8,-2.8 -20.8,-9.9 -40.4,-24 -50.9,-36.6 -58.2,-56.4 -90.9,-73.7 -25,-13.2 -47.1,-15.7 -67.9,-17.9 0,0 -59.1,-6.4 -163.2,39.4 -7.2,3.2 -10.8,5.8 -13.6,9 11.1,-15.7 33.6,-35.6 33.6,-35.6 0,0 -17.2,-0.7 -30.4,3.8 -7.2,2.5 -13.2,6.6 -17.7,9.8 -0.7,0.5 -1.6,1.1 -2.6,1.8 1.8,-3.1 3.3,-5.6 3.9,-6.7 0.3,-0.5 4.7,-8 4.6,-8.7 -0.1,-0.7 -6.6,1.1 -8.1,1.4 -2.2,0.5 -4.1,0.7 -7.1,1.5 -6.1,1.6 -12.3,4.1 -12.3,4.1 0,0 -13.6,6 -17.7,8.8 -7.3,5.1 -20.6,16.9 -27.9,22.1 -7.6,5.4 -21.6,12.5 -30.7,21 -5.3,4.9 -11.2,7.3 -17.8,8.9 -7.1,1.7 -13.9,4.2 -20,8.5 -2.5,1.8 -4.7,3.9 -6.7,6.2 -3.1,3.5 -7,5.6 -11,7.7 -10.5,5.5 -20.9,11 -31.3,16.5 -3,1.6 -6.3,2.6 -9.3,4.1 -3.2,1.5 -6.3,3.3 -7.9,6.7 -0.1,1 -0.1,2 -0.2,3 1.4,4.1 4.8,6.2 8.4,7.9 2.8,1.3 5.6,2.5 7.9,4.7 3.3,3.1 13,3.8 17.5,3.9 2.3,0.1 4.3,2.6 5.8,3.4 3.6,1.9 12.8,3.8 16.5,-0.2 z m 110.5,-14.9"
   id="path18"
   inkscape:connector-curvature="0"
   style="fill:#ffffff;stroke:#000000;stroke-width:4;stroke-miterlimit:10" />
	<path
   d="m 608,364.6 27.2,-15.1 c 0,0 -2.9,12.8 -8.1,15.5 -5.3,2.6 -19.1,-0.4 -19.1,-0.4 z"
   id="path20"
   inkscape:connector-curvature="0" />
	<path
   class="st2"
   d="m 1317,234 3.9,6 c 0,0 10.5,-19.4 16.6,-18.5 6.3,1 10.2,23.4 10.2,23.4 0,0 10.9,-17.9 16.6,-16.5 5.1,1.3 6.3,20.2 6.3,20.2 l 9.6,-16.7"
   id="path22"
   inkscape:connector-curvature="0"
   style="fill:none;stroke:#000000;stroke-width:4;stroke-miterlimit:10" />
	<g
   id="g28">
		<path
   d="m 607.8,430 c 2,1 3.4,2.9 5.7,2.6 0.5,-0.1 0.7,0.3 0.8,0.7 0.2,1.1 1,1.7 1.8,2.3 2.3,1.7 4.8,3.3 7.2,4.9 0.6,0.4 1.2,0.6 1.9,0.6 0.7,0 1.4,0.2 1.6,0.9 0.4,1.2 1.4,1.8 2.4,2.4 2.1,1.4 4.3,2.7 6.4,4 0.9,0.6 1.8,1 2.9,1 1,0 1.7,0.4 2.1,1.3 0.3,0.5 0.6,1.1 1.1,1.4 2.7,1.6 5.5,3.2 8.3,4.7 1,0.5 2,0 2.9,0.3 0.9,0.4 1.1,1.7 2.1,2.2 3.3,1.6 6.6,3.1 10.2,4.1 2.1,0.6 4.2,0.6 6,-0.9 1.1,-0.9 2,-1.9 2.8,-3.1 1.4,-2.1 1.8,-4.4 1,-6.8 -0.7,-2.4 -1.9,-4.6 -3.3,-6.6 -1.3,-1.9 -3.5,-3.3 -3.7,-6 0,-0.3 -0.4,-0.6 -0.6,-0.9 -1.4,-2 -2.8,-3.9 -4.1,-5.9 -0.6,-0.8 -1.1,-1.5 -2.1,-1.8 -0.5,-0.2 -1,-0.6 -1.1,-1.2 -0.4,-2.1 -1.8,-3.7 -3.1,-5.3 -2.6,-3.1 -4.7,-6.8 -8.1,-9.2 -0.5,-0.3 -0.7,-0.9 -0.9,-1.4 -0.3,-0.7 -0.7,-1.3 -1.1,-1.9 -1.3,-2 -3.3,-3.4 -4.7,-5.2 l 0.4,-6.4 c 1,1.8 2.3,3.4 3.8,4.9 2.1,2 4.1,4.1 5.4,6.8 0.1,0.1 0.2,0.3 0.3,0.4 3.3,2.3 5.2,5.7 7.7,8.6 1.6,1.9 3.3,3.8 4.1,6.3 0,0.1 0.2,0.3 0.3,0.4 3.5,2.7 5.5,6.5 7.7,10.1 1.2,2 2.6,3.8 3.8,5.8 1.9,3.1 3.6,6.3 4.1,10 0.1,0.5 -0.3,1.1 0.2,1.6 0,0.2 0,0.5 -0.1,0.7 -0.4,0.1 -0.2,0.5 -0.3,0.7 -1,4.5 -3.7,7.6 -7.6,10 -1.1,0.7 -2.4,0.6 -3.6,1 -1,-0.1 -2.1,-0.1 -3.1,-0.2 -0.9,-0.6 -2.1,-0.7 -3.1,-1 -2.7,-0.9 -5.4,-1.9 -7.9,-3.4 -4.5,-2.7 -9.7,-4.3 -13.9,-7.5 -2.2,-1.6 -4.5,-2.7 -6.8,-4.1 -2.3,-1.3 -4.5,-2.8 -6.8,-4.3 -0.9,-0.6 -1.8,-1.2 -2.5,-2.1 -0.1,-0.2 -0.3,-0.3 -0.6,-0.4 -4.5,-2.1 -8.6,-4.8 -12.2,-8.3 -0.1,-0.1 -0.2,-0.2 -0.3,-0.2 -3.7,-1.4 -9.3,-3.3 -9.9,-6.1 -0.1,-0.3 0.3,-0.9 0.5,-1.1"
   id="path24"
   inkscape:connector-curvature="0" />
		<path
   class="st0"
   d="m 642.1,407.2 c 1.5,1.8 3.4,3.3 4.7,5.2 0.4,0.6 0.8,1.2 1.1,1.9 0.2,0.5 0.5,1.1 0.9,1.4 3.5,2.4 5.5,6.1 8.1,9.2 1.3,1.6 2.7,3.2 3.1,5.3 0.1,0.6 0.6,1 1.1,1.2 1,0.3 1.6,1 2.1,1.8 1.4,2 2.7,3.9 4.1,5.9 0.2,0.3 0.5,0.6 0.6,0.9 0.2,2.6 2.4,4 3.7,6 1.4,2.1 2.5,4.3 3.3,6.6 0.8,2.4 0.4,4.7 -1,6.8 -0.8,1.2 -1.8,2.2 -2.8,3.1 -1.8,1.6 -3.9,1.5 -6,0.9 -3.6,-1 -6.9,-2.5 -10.2,-4.1 -1,-0.5 -1.2,-1.8 -2.1,-2.2 -0.8,-0.4 -1.9,0.2 -2.9,-0.3 -2.8,-1.5 -5.6,-3.1 -8.3,-4.7 -0.5,-0.3 -0.8,-0.8 -1.1,-1.4 -0.4,-0.9 -1.1,-1.3 -2.1,-1.3 -1.1,0 -2,-0.4 -2.9,-1 -2.1,-1.4 -4.3,-2.7 -6.4,-4 -1,-0.6 -1.9,-1.2 -2.4,-2.4 -0.2,-0.7 -0.9,-0.9 -1.6,-0.9 -0.7,0 -1.3,-0.2 -1.9,-0.6 -2.4,-1.6 -4.9,-3.1 -7.2,-4.9 -0.8,-0.6 -1.6,-1.2 -1.8,-2.3 -0.1,-0.4 -0.3,-0.8 -0.8,-0.7 -2.4,0.3 -3.7,-1.6 -5.7,-2.6"
   id="path26"
   inkscape:connector-curvature="0"
   style="fill:#ffffff" />
	</g>
</g><g
   id="Calque_3"
   transform="translate(0,-560)">
</g>
<g
   id="Calque_4"
   transform="translate(0,-560)">
</g>

<g
   id="Calque_2"
   transform="translate(0,-560)">
	<g
   id="K_1_"
   class="st3"
   style="display:none">
		<path
   class="st4"
   d="m 528.8,531 c 1.2,0.6 2.4,1.3 3.5,2.1 0.6,0.4 1.1,0.7 1.7,1.1 0.5,0.4 1.1,0.7 1.6,1.2 l 0.6,0.4 -0.3,0.7 c -0.7,1.4 -1.4,2.7 -2.2,4.1 -0.4,0.7 -0.8,1.3 -1.2,2 -0.4,0.7 -0.8,1.3 -1.2,2 l -0.6,-1.3 c 1.4,0.4 2.8,0.8 4.2,1.3 1.4,0.5 2.8,1 4.2,1.6 -1.5,0 -3,-0.2 -4.4,-0.4 -1.5,-0.2 -2.9,-0.4 -4.4,-0.7 l -1.1,-0.2 0.6,-1.1 c 0.3,-0.7 0.7,-1.4 1.1,-2.1 0.4,-0.7 0.7,-1.4 1.1,-2 0.8,-1.3 1.6,-2.7 2.4,-4 l 0.2,1.1 c -0.5,-0.4 -1,-0.9 -1.5,-1.3 -0.5,-0.4 -1,-0.9 -1.5,-1.4 -1,-1.1 -2,-2.1 -2.8,-3.1 z"
   id="path31"
   inkscape:connector-curvature="0"
   style="display:inline;fill:#ffffff" />
	</g>
	<text
   transform="translate(440.1187,825.084)"
   class="st3 st5 st6"
   id="text34"
   style="font-size:200px;font-family:CambriaMath;display:none">Max SPIEGEL</text>

</g>
</svg>